<svg width="50" height="50" viewBox="0 0 50 50" fill="none" xmlns="http://www.w3.org/2000/svg">
  <g clip-path="url(#clip0_1_2895)">
    <rect width="50" height="50" rx="25" fill="#111" />
    <circle cx="25" cy="25" r="24.5" stroke="#111" />
    <path d="M12 21C12 20.4477 12.4477 20 13 20H37C37.5523 20 38 20.4477 38 21V21C38 21.5523 37.5523 22 37 22H13C12.4477 22 12 21.5523 12 21V21Z" fill="white" />
    <path d="M12 29C12 28.4477 12.4477 28 13 28H37C37.5523 28 38 28.4477 38 29V29C38 29.5523 37.5523 30 37 30H13C12.4477 30 12 29.5523 12 29V29Z" fill="white" />
  </g>
  <defs>
    <clipPath id="clip0_1_2895">
      <rect width="50" height="50" rx="25" fill="white" />
    </clipPath>
  </defs>
</svg>