<svg width="22" height="22" viewBox="0 0 22 22" fill="none" xmlns="http://www.w3.org/2000/svg">
<path fill-rule="evenodd" clip-rule="evenodd" d="M10.4113 1.9406C10.1935 1.9405 9.99173 1.94041 9.80414 1.94071V1.93801C7.797 1.94026 7.412 1.95372 6.41853 1.99859C5.36852 2.04683 4.79842 2.22183 4.4188 2.3699C3.91623 2.56555 3.55725 2.79888 3.18032 3.1758C2.80339 3.55272 2.56961 3.9117 2.37442 4.41426C2.22701 4.79388 2.05156 5.36375 2.00355 6.41375C1.95194 7.54901 1.94162 7.88824 1.94162 10.7641C1.94162 13.6399 1.95194 13.9809 2.00355 15.1162C2.05134 16.1662 2.22701 16.7361 2.37442 17.1152C2.57006 17.618 2.80339 17.9761 3.18032 18.353C3.55725 18.7299 3.91623 18.9633 4.4188 19.1585C4.79864 19.3059 5.36852 19.4813 6.41853 19.5298C7.5538 19.5814 7.8946 19.5926 10.7702 19.5926C13.6457 19.5926 13.9867 19.5814 15.122 19.5298C16.172 19.4818 16.7423 19.3068 17.1215 19.1587C17.6243 18.9635 17.9821 18.7302 18.359 18.3532C18.736 17.9765 18.9697 17.6187 19.1649 17.1161C19.3123 16.737 19.4878 16.1671 19.5358 15.1171C19.5874 13.9818 19.5986 13.6408 19.5986 10.7668C19.5986 7.89272 19.5874 7.5517 19.5358 6.41644C19.488 5.36644 19.3123 4.79657 19.1649 4.4174C18.9693 3.91484 18.736 3.55587 18.359 3.17894C17.9823 2.80202 17.624 2.56869 17.1215 2.37349C16.7418 2.22609 16.172 2.05064 15.122 2.00263C13.9865 1.95103 13.6457 1.94071 10.7702 1.94071L10.4113 1.9406ZM16.5188 3.72885C15.8054 3.72885 15.2265 4.30702 15.2265 5.02071C15.2265 5.73417 15.8054 6.31301 16.5188 6.31301C17.2323 6.31301 17.8111 5.73417 17.8111 5.02071C17.8111 4.30724 17.2323 3.72885 16.5188 3.72885ZM5.23973 10.7692C5.23973 7.71503 7.71601 5.23878 10.7702 5.23878C13.8245 5.23878 16.2999 7.71503 16.2999 10.7692C16.2999 13.8234 13.8245 16.2986 10.7702 16.2986C7.71601 16.2986 5.23973 13.8234 5.23973 10.7692Z" fill="#19181D"/>
<path fill-rule="evenodd" clip-rule="evenodd" d="M6.32968 0.0650641C7.47841 0.0127885 7.84547 0 10.7702 0H10.7669C13.6925 0 14.0583 0.0127885 15.207 0.0650641C16.3535 0.117564 17.1365 0.299071 17.823 0.565385C18.532 0.840224 19.1311 1.20817 19.7301 1.80721C20.3292 2.4058 20.6971 3.00663 20.9731 3.71494C21.2378 4.39968 21.4195 5.18224 21.4734 6.32872C21.525 7.47744 21.5385 7.84449 21.5385 10.7692C21.5385 13.694 21.525 14.0601 21.4734 15.2088C21.4195 16.3549 21.2378 17.1377 20.9731 17.8226C20.6971 18.5307 20.3292 19.1315 19.7301 19.7301C19.1317 20.3292 18.5318 20.698 17.8237 20.9731C17.1385 21.2394 16.355 21.4209 15.2086 21.4734C14.0598 21.5257 13.6939 21.5385 10.7689 21.5385C7.84434 21.5385 7.47751 21.5257 6.32878 21.4734C5.18252 21.4209 4.39972 21.2394 3.71453 20.9731C3.00667 20.698 2.40583 20.3292 1.80745 19.7301C1.20863 19.1315 0.840682 18.5307 0.565391 17.8224C0.299298 17.1377 0.11779 16.3551 0.0650648 15.2086C0.0130129 14.0599 0 13.694 0 10.7692C0 7.84449 0.0134617 7.47721 0.0648404 6.32849C0.116444 5.18247 0.298176 4.39968 0.565166 3.71471C0.841131 3.00663 1.20908 2.4058 1.80813 1.80721C2.40672 1.2084 3.00756 0.840449 3.71587 0.565385C4.40062 0.299071 5.1832 0.117564 6.32968 0.0650641ZM10.4113 1.9406L10.7702 1.94071C13.6457 1.94071 13.9865 1.95103 15.122 2.00263C16.172 2.05064 16.7418 2.22609 17.1215 2.37349C17.624 2.56869 17.9823 2.80202 18.359 3.17894C18.736 3.55587 18.9693 3.91484 19.1649 4.4174C19.3123 4.79657 19.488 5.36644 19.5358 6.41644C19.5874 7.5517 19.5986 7.89272 19.5986 10.7668C19.5986 13.6408 19.5874 13.9818 19.5358 15.1171C19.4878 16.1671 19.3123 16.737 19.1649 17.1161C18.9697 17.6187 18.736 17.9765 18.359 18.3532C17.9821 18.7302 17.6243 18.9635 17.1215 19.1587C16.7423 19.3068 16.172 19.4818 15.122 19.5298C13.9867 19.5814 13.6457 19.5926 10.7702 19.5926C7.8946 19.5926 7.5538 19.5814 6.41853 19.5298C5.36852 19.4813 4.79864 19.3059 4.4188 19.1585C3.91623 18.9633 3.55725 18.7299 3.18032 18.353C2.80339 17.9761 2.57006 17.618 2.37442 17.1152C2.22701 16.7361 2.05134 16.1662 2.00355 15.1162C1.95194 13.9809 1.94162 13.6399 1.94162 10.7641C1.94162 7.88824 1.95194 7.54901 2.00355 6.41375C2.05156 5.36375 2.22701 4.79388 2.37442 4.41426C2.56961 3.9117 2.80339 3.55272 3.18032 3.1758C3.55725 2.79888 3.91623 2.56555 4.4188 2.3699C4.79842 2.22183 5.36852 2.04683 6.41853 1.99859C7.412 1.95372 7.797 1.94026 9.80414 1.93801V1.94071C9.99173 1.94041 10.1935 1.9405 10.4113 1.9406Z" fill="#19181D"/>
</svg>
