<svg width="41" height="40" viewBox="0 0 41 40" fill="none" xmlns="http://www.w3.org/2000/svg">
<circle cx="20.2891" cy="20" r="20" fill="#7B7F94"/>
<path fill-rule="evenodd" clip-rule="evenodd" d="M19.8212 12.7556C19.647 12.7555 19.4856 12.7555 19.3355 12.7557V12.7535C17.7298 12.7553 17.4218 12.7661 16.627 12.802C15.787 12.8406 15.3309 12.9806 15.0272 13.099C14.6252 13.2556 14.338 13.4422 14.0364 13.7438C13.7349 14.0453 13.5479 14.3325 13.3917 14.7345C13.2738 15.0382 13.1334 15.4941 13.095 16.3341C13.0537 17.2423 13.0455 17.5137 13.0455 19.8144C13.0455 22.115 13.0537 22.3879 13.095 23.2961C13.1333 24.1361 13.2738 24.592 13.3917 24.8953C13.5482 25.2975 13.7349 25.584 14.0364 25.8855C14.338 26.1871 14.6252 26.3737 15.0272 26.5299C15.3311 26.6478 15.787 26.7882 16.627 26.8269C17.5352 26.8682 17.8079 26.8772 20.1084 26.8772C22.4087 26.8772 22.6815 26.8682 23.5897 26.8269C24.4298 26.7885 24.886 26.6485 25.1894 26.5301C25.5916 26.3739 25.8779 26.1873 26.1794 25.8857C26.481 25.5844 26.668 25.2981 26.8241 24.896C26.9421 24.5927 27.0824 24.1368 27.1208 23.2968C27.1621 22.3886 27.1711 22.1158 27.1711 19.8165C27.1711 17.5173 27.1621 17.2445 27.1208 16.3363C27.0826 15.4963 26.9421 15.0404 26.8241 14.737C26.6676 14.335 26.481 14.0478 26.1794 13.7463C25.8781 13.4447 25.5914 13.2581 25.1894 13.1019C24.8857 12.984 24.4298 12.8436 23.5897 12.8052C22.6814 12.7639 22.4087 12.7557 20.1084 12.7557L19.8212 12.7556ZM24.7072 14.1862C24.1365 14.1862 23.6734 14.6487 23.6734 15.2197C23.6734 15.7905 24.1365 16.2535 24.7072 16.2535C25.278 16.2535 25.7411 15.7905 25.7411 15.2197C25.7411 14.6489 25.278 14.1862 24.7072 14.1862ZM15.684 19.8185C15.684 17.3752 17.665 15.3942 20.1084 15.3942C22.5518 15.3942 24.5321 17.3752 24.5321 19.8185C24.5321 22.2619 22.5518 24.242 20.1084 24.242C17.665 24.242 15.684 22.2619 15.684 19.8185Z" fill="white"/>
<path fill-rule="evenodd" clip-rule="evenodd" d="M16.5559 11.2552C17.4749 11.2134 17.7686 11.2031 20.1084 11.2031H20.1057C22.4462 11.2031 22.7388 11.2134 23.6578 11.2552C24.575 11.2972 25.2014 11.4424 25.7506 11.6554C26.3178 11.8753 26.797 12.1697 27.2763 12.6489C27.7555 13.1278 28.0499 13.6084 28.2706 14.1751C28.4824 14.7229 28.6278 15.3489 28.6709 16.2661C28.7122 17.1851 28.723 17.4787 28.723 19.8185C28.723 22.1583 28.7122 22.4512 28.6709 23.3702C28.6278 24.287 28.4824 24.9133 28.2706 25.4612C28.0499 26.0277 27.7555 26.5084 27.2763 26.9872C26.7976 27.4665 26.3176 27.7615 25.7512 27.9816C25.203 28.1946 24.5762 28.3398 23.659 28.3818C22.74 28.4237 22.4473 28.4339 20.1073 28.4339C17.7677 28.4339 17.4742 28.4237 16.5552 28.3818C15.6382 28.3398 15.012 28.1946 14.4638 27.9816C13.8975 27.7615 13.4168 27.4665 12.9382 26.9872C12.4591 26.5084 12.1647 26.0277 11.9445 25.461C11.7316 24.9133 11.5864 24.2872 11.5442 23.37C11.5026 22.451 11.4922 22.1583 11.4922 19.8185C11.4922 17.4787 11.503 17.1849 11.5441 16.2659C11.5853 15.3491 11.7307 14.7229 11.9443 14.1749C12.1651 13.6084 12.4595 13.1278 12.9387 12.6489C13.4176 12.1698 13.8982 11.8755 14.4649 11.6554C15.0127 11.4424 15.6387 11.2972 16.5559 11.2552ZM19.8212 12.7556L20.1084 12.7557C22.4087 12.7557 22.6814 12.7639 23.5897 12.8052C24.4298 12.8436 24.8857 12.984 25.1894 13.1019C25.5914 13.2581 25.8781 13.4447 26.1794 13.7463C26.481 14.0478 26.6676 14.335 26.8241 14.737C26.9421 15.0404 27.0826 15.4963 27.1208 16.3363C27.1621 17.2445 27.1711 17.5173 27.1711 19.8165C27.1711 22.1158 27.1621 22.3886 27.1208 23.2968C27.0824 24.1368 26.9421 24.5927 26.8241 24.896C26.668 25.2981 26.481 25.5844 26.1794 25.8857C25.8779 26.1873 25.5916 26.3739 25.1894 26.5301C24.886 26.6485 24.4298 26.7885 23.5897 26.8269C22.6815 26.8682 22.4087 26.8772 20.1084 26.8772C17.8079 26.8772 17.5352 26.8682 16.627 26.8269C15.787 26.7882 15.3311 26.6478 15.0272 26.5299C14.6252 26.3737 14.338 26.1871 14.0364 25.8855C13.7349 25.584 13.5482 25.2975 13.3917 24.8953C13.2738 24.592 13.1333 24.1361 13.095 23.2961C13.0537 22.3879 13.0455 22.115 13.0455 19.8144C13.0455 17.5137 13.0537 17.2423 13.095 16.3341C13.1334 15.4941 13.2738 15.0382 13.3917 14.7345C13.5479 14.3325 13.7349 14.0453 14.0364 13.7438C14.338 13.4422 14.6252 13.2556 15.0272 13.099C15.3309 12.9806 15.787 12.8406 16.627 12.802C17.4218 12.7661 17.7298 12.7553 19.3355 12.7535V12.7557C19.4856 12.7555 19.647 12.7555 19.8212 12.7556Z" fill="white"/>
</svg>
