<svg width="162" height="59" viewBox="0 0 162 59" fill="none" xmlns="http://www.w3.org/2000/svg">
<path d="M86.3654 21.8252H75.0617V43.0054H69.3912V21.8252H58.125V17.0938H86.3654V21.8252Z" fill="#5B5F74"/>
<path d="M34.7113 34.969L51.3855 17.0938H55.4033V43.0054H49.7328V25.2802L32.9463 43.0054H29.0781V17.0938H34.7113V34.969Z" fill="#5B5F74"/>
<path d="M19.1526 43.0054L8.97564 31.6268H5.6705V43.0054H0V17.0938H5.6705V30.3499L18.9647 17.0938H25.8748L13.369 29.1481L26.5129 43.0054H19.1526Z" fill="#5B5F74"/>
<path d="M119.132 58.9978C134.694 58.9978 147.31 46.3818 147.31 30.8192C147.31 15.2566 134.694 2.64062 119.132 2.64062C103.569 2.64062 90.9531 15.2566 90.9531 30.8192C90.9531 46.3818 103.569 58.9978 119.132 58.9978Z" fill="#D9EDEC"/>
<path d="M151.897 23.1328C151.788 22.2394 149.044 20.2873 144.842 20.0233C140.633 19.7666 141.452 15.1406 141.452 15.1406C141.452 15.1406 141.337 13.6369 141.586 14.0033C141.835 14.3641 142.494 14.967 142.494 14.967C142.494 14.967 146.901 15.083 148.724 15.295C150.548 15.506 152.498 17.9679 152.498 17.9679C153.566 13.5538 156.898 13.034 158.997 12.6412C161.095 12.2493 161.146 11.0289 161.146 11.0289C161.146 11.0289 161.53 11.0097 161.741 13.6753C161.945 16.3418 159.572 18.8723 156.393 19.4003C153.214 19.9264 153.7 23.036 153.7 23.036L154.02 26.3575C154.864 33.4125 153.598 37.717 148.832 43.6146C146.657 46.2994 143.408 48.1118 140.504 49.2939C141.022 50.6175 142.711 54.3318 145.672 54.7557C139.033 57.3318 132.035 53.5672 129.221 51.7421C128.011 51.838 126.496 51.9485 124.609 52.0764C114.881 52.7314 108.765 50.5408 104.678 47.9903C102.285 46.4921 101.294 45.0671 100.469 42.7093C100.271 42.1374 108.714 46.0244 116.869 42.2142C117.574 41.8223 117.502 41.656 116.78 41.7967C112.347 42.6517 105.881 42.8947 99.7977 38.8086C98.5307 37.9609 98.4583 36.6307 98.0139 34.2888C97.5345 30.8907 96.3654 23.1328 105.041 14.5652C106.799 13.0424 109.888 11.9532 111.766 11.3038C113.019 11.6062 115.842 11.4265 123.761 10.7578C128.758 10.7578 133.46 14.0822 135.373 16.376C140.055 22.0169 143.299 30.2436 143.299 30.2436C143.299 30.2436 144.482 34.8888 149.248 33.2755C154.021 31.6513 152.006 24.0263 151.897 23.1328Z" fill="#06BAB5"/>
<path d="M111.947 12.2265L109.719 0.831825C109.719 0.831825 117.227 -0.637617 125.959 0.444533L124.781 10.9348C124.322 11.118 120.023 12.0056 118.778 12.2265C118.778 12.2265 111.771 12.8325 111.947 12.2265Z" fill="#06BAB5"/>
<path d="M117.232 2.64062H119.477V5.0722H121.871V7.32059H119.477V9.73869H117.232V7.32059H114.805V5.0722H117.232V2.64062Z" fill="white"/>
<path fill-rule="evenodd" clip-rule="evenodd" d="M111.515 34.1348C111.327 31.9816 112.917 30.0798 115.067 29.8903C117.218 29.7008 119.11 31.2929 119.298 33.4461C119.487 35.5984 117.896 37.5002 115.745 37.6896C113.596 37.8791 111.704 36.288 111.515 34.1348Z" fill="white"/>
<path d="M113.147 34.1939C113.071 33.3598 113.719 32.6217 114.587 32.5453C115.454 32.4699 116.215 33.0823 116.29 33.9219C116.366 34.756 115.718 35.4941 114.85 35.5704C113.983 35.6396 113.222 35.0272 113.147 34.1939Z" fill="#06BAB5"/>
</svg>
