<svg width="162" height="99" viewBox="0 0 162 99" fill="none" xmlns="http://www.w3.org/2000/svg">
<path d="M4.784 60.6C5.83267 60.5913 6.62567 60.808 7.163 61.25C7.709 61.6833 7.982 62.2683 7.982 63.005C7.982 63.5597 7.81733 64.0277 7.488 64.409C7.16733 64.7817 6.72533 64.9983 6.162 65.059C7.08933 65.137 7.839 65.397 8.411 65.839C8.983 66.281 9.269 66.9223 9.269 67.763C9.269 68.8637 8.84867 69.6783 8.008 70.207C7.176 70.7357 6.10133 71 4.784 71H0.65V60.6H4.784ZM4.784 64.461C5.39067 64.461 5.84133 64.3483 6.136 64.123C6.43067 63.8977 6.578 63.5857 6.578 63.187C6.578 62.8143 6.43067 62.524 6.136 62.316C5.84133 62.0993 5.39067 61.991 4.784 61.991H2.041V64.461H4.784ZM4.784 69.609C5.876 69.609 6.643 69.4357 7.085 69.089C7.527 68.7337 7.748 68.2613 7.748 67.672C7.748 67.1173 7.51833 66.671 7.059 66.333C6.59967 65.995 5.84133 65.826 4.784 65.826H2.041V69.609H4.784ZM11.969 67.958C12.0557 68.53 12.294 68.9893 12.684 69.336C13.0827 69.674 13.5767 69.843 14.166 69.843C14.6167 69.843 15.024 69.752 15.388 69.57C15.752 69.3793 16.0554 69.102 16.298 68.738L17.273 69.414C16.9437 69.9947 16.506 70.4367 15.96 70.74C15.4227 71.0433 14.8247 71.195 14.166 71.195C13.4987 71.195 12.8877 71.0303 12.333 70.701C11.787 70.3717 11.3537 69.9253 11.033 69.362C10.721 68.79 10.565 68.166 10.565 67.49C10.565 66.8227 10.721 66.2073 11.033 65.644C11.3537 65.0807 11.7914 64.6343 12.346 64.305C12.9007 63.9757 13.5074 63.811 14.166 63.811C14.8767 63.811 15.5007 63.993 16.038 64.357C16.584 64.7123 16.9957 65.2063 17.273 65.839C17.559 66.4717 17.6847 67.178 17.65 67.958H11.969ZM14.166 65.15C13.594 65.15 13.1087 65.319 12.71 65.657C12.32 65.995 12.0774 66.437 11.982 66.983H16.311C16.2244 66.4197 15.9817 65.9733 15.583 65.644C15.193 65.3147 14.7207 65.15 14.166 65.15ZM25.1605 63.928V65.241H22.3915V71H21.0785V65.241H18.2965V63.928H25.1605ZM27.2161 67.958C27.3028 68.53 27.5411 68.9893 27.9311 69.336C28.3298 69.674 28.8238 69.843 29.4131 69.843C29.8638 69.843 30.2711 69.752 30.6351 69.57C30.9991 69.3793 31.3024 69.102 31.5451 68.738L32.5201 69.414C32.1908 69.9947 31.7531 70.4367 31.2071 70.74C30.6698 71.0433 30.0718 71.195 29.4131 71.195C28.7458 71.195 28.1348 71.0303 27.5801 70.701C27.0341 70.3717 26.6008 69.9253 26.2801 69.362C25.9681 68.79 25.8121 68.166 25.8121 67.49C25.8121 66.8227 25.9681 66.2073 26.2801 65.644C26.6008 65.0807 27.0384 64.6343 27.5931 64.305C28.1478 63.9757 28.7544 63.811 29.4131 63.811C30.1238 63.811 30.7478 63.993 31.2851 64.357C31.8311 64.7123 32.2428 65.2063 32.5201 65.839C32.8061 66.4717 32.9318 67.178 32.8971 67.958H27.2161ZM29.4131 65.15C28.8411 65.15 28.3558 65.319 27.9571 65.657C27.5671 65.995 27.3244 66.437 27.2291 66.983H31.5581C31.4714 66.4197 31.2288 65.9733 30.8301 65.644C30.4401 65.3147 29.9678 65.15 29.4131 65.15ZM38.455 63.811C39.0443 63.811 39.5817 63.98 40.067 64.318C40.5523 64.6473 40.9337 65.1023 41.211 65.683C41.4883 66.2637 41.627 66.9093 41.627 67.62C41.627 68.2527 41.4883 68.8463 41.211 69.401C40.9337 69.947 40.5523 70.3847 40.067 70.714C39.5817 71.0347 39.0443 71.195 38.455 71.195C37.7183 71.195 37.1117 70.9957 36.635 70.597C36.167 70.1897 35.855 69.5873 35.699 68.79H35.452L35.582 73.6H34.191V63.928H35.582L35.452 66.151H35.725C35.8897 65.3883 36.206 64.8077 36.674 64.409C37.1507 64.0103 37.7443 63.811 38.455 63.811ZM37.974 69.804C38.4073 69.804 38.7973 69.7087 39.144 69.518C39.4907 69.3273 39.7637 69.063 39.963 68.725C40.1623 68.387 40.262 68.0013 40.262 67.568C40.262 67.1173 40.1623 66.7187 39.963 66.372C39.7637 66.0167 39.4907 65.7437 39.144 65.553C38.7973 65.3537 38.4073 65.254 37.974 65.254C37.584 65.254 37.22 65.3537 36.882 65.553C36.544 65.7437 36.2753 66.008 36.076 66.346C35.8767 66.684 35.777 67.0523 35.777 67.451C35.777 67.8757 35.8723 68.27 36.063 68.634C36.2623 68.9893 36.531 69.2753 36.869 69.492C37.207 69.7 37.5753 69.804 37.974 69.804ZM49.8024 63.928V71.013H48.4894V65.644L44.3944 71.013H42.9254L42.9384 71V63.928H44.2384V69.284L48.3204 63.928H49.8024ZM56.7791 63.928H58.0921V71H56.7791V68.114H52.5281V71H51.2281V63.928H52.5281V66.801H56.7791V63.928ZM62.6022 63.824C63.7029 63.824 64.5349 64.1013 65.0982 64.656C65.6615 65.202 65.9432 65.9777 65.9432 66.983V71H64.6042L64.8252 68.725H64.6302C64.4482 69.5483 64.1275 70.1637 63.6682 70.571C63.2175 70.9783 62.6455 71.182 61.9522 71.182C61.0855 71.182 60.4399 70.9913 60.0152 70.61C59.5992 70.2287 59.3912 69.7173 59.3912 69.076C59.3912 68.2873 59.6945 67.698 60.3012 67.308C60.9165 66.9093 61.8092 66.71 62.9792 66.71H64.6172C64.5565 66.216 64.3529 65.8433 64.0062 65.592C63.6595 65.3407 63.1915 65.215 62.6022 65.215C62.1602 65.215 61.7962 65.3103 61.5102 65.501C61.2242 65.683 60.9512 65.969 60.6912 66.359L59.5732 65.579C59.9632 65.007 60.3965 64.5737 60.8732 64.279C61.3499 63.9757 61.9262 63.824 62.6022 63.824ZM62.1212 69.791C62.8232 69.791 63.3735 69.6047 63.7722 69.232C64.1709 68.8593 64.4265 68.3523 64.5392 67.711H62.9792C62.2252 67.711 61.6662 67.802 61.3022 67.984C60.9469 68.166 60.7692 68.452 60.7692 68.842C60.7692 69.128 60.8819 69.3577 61.1072 69.531C61.3325 69.7043 61.6705 69.791 62.1212 69.791ZM71.5009 63.811C72.0902 63.811 72.6276 63.98 73.1129 64.318C73.5982 64.6473 73.9796 65.1023 74.2569 65.683C74.5342 66.2637 74.6729 66.9093 74.6729 67.62C74.6729 68.2527 74.5342 68.8463 74.2569 69.401C73.9796 69.947 73.5982 70.3847 73.1129 70.714C72.6276 71.0347 72.0902 71.195 71.5009 71.195C70.7642 71.195 70.1576 70.9957 69.6809 70.597C69.2129 70.1897 68.9009 69.5873 68.7449 68.79H68.4979L68.6279 73.6H67.2369V63.928H68.6279L68.4979 66.151H68.7709C68.9356 65.3883 69.2519 64.8077 69.7199 64.409C70.1966 64.0103 70.7902 63.811 71.5009 63.811ZM71.0199 69.804C71.4532 69.804 71.8432 69.7087 72.1899 69.518C72.5366 69.3273 72.8096 69.063 73.0089 68.725C73.2082 68.387 73.3079 68.0013 73.3079 67.568C73.3079 67.1173 73.2082 66.7187 73.0089 66.372C72.8096 66.0167 72.5366 65.7437 72.1899 65.553C71.8432 65.3537 71.4532 65.254 71.0199 65.254C70.6299 65.254 70.2659 65.3537 69.9279 65.553C69.5899 65.7437 69.3212 66.008 69.1219 66.346C68.9226 66.684 68.8229 67.0523 68.8229 67.451C68.8229 67.8757 68.9182 68.27 69.1089 68.634C69.3082 68.9893 69.5769 69.2753 69.9149 69.492C70.2529 69.7 70.6212 69.804 71.0199 69.804ZM81.5223 63.928H82.8353V71H81.5223V68.114H77.2713V71H75.9713V63.928H77.2713V66.801H81.5223V63.928ZM87.3454 63.824C88.446 63.824 89.278 64.1013 89.8414 64.656C90.4047 65.202 90.6864 65.9777 90.6864 66.983V71H89.3474L89.5684 68.725H89.3734C89.1914 69.5483 88.8707 70.1637 88.4114 70.571C87.9607 70.9783 87.3887 71.182 86.6954 71.182C85.8287 71.182 85.183 70.9913 84.7584 70.61C84.3424 70.2287 84.1344 69.7173 84.1344 69.076C84.1344 68.2873 84.4377 67.698 85.0444 67.308C85.6597 66.9093 86.5524 66.71 87.7224 66.71H89.3604C89.2997 66.216 89.096 65.8433 88.7494 65.592C88.4027 65.3407 87.9347 65.215 87.3454 65.215C86.9034 65.215 86.5394 65.3103 86.2534 65.501C85.9674 65.683 85.6944 65.969 85.4344 66.359L84.3164 65.579C84.7064 65.007 85.1397 64.5737 85.6164 64.279C86.093 63.9757 86.6694 63.824 87.3454 63.824ZM86.8644 69.791C87.5664 69.791 88.1167 69.6047 88.5154 69.232C88.914 68.8593 89.1697 68.3523 89.2824 67.711H87.7224C86.9684 67.711 86.4094 67.802 86.0454 67.984C85.69 68.166 85.5124 68.452 85.5124 68.842C85.5124 69.128 85.625 69.3577 85.8504 69.531C86.0757 69.7043 86.4137 69.791 86.8644 69.791ZM98.6751 63.928V71H97.3361V68.283H95.5811L93.4491 71H91.9801L94.1641 68.205C92.7081 67.997 91.9801 67.3037 91.9801 66.125C91.9801 64.6603 93.0937 63.928 95.3211 63.928H98.6751ZM97.3361 65.228H95.3211C94.5844 65.228 94.0687 65.306 93.7741 65.462C93.4881 65.6093 93.3451 65.8303 93.3451 66.125C93.3451 66.4197 93.4881 66.6407 93.7741 66.788C94.0601 66.9267 94.5757 66.996 95.3211 66.996H97.3361V65.228ZM7.514 78.928L5.044 82.464L7.514 86H6.019L4.017 83.127H1.95V86H0.65V78.928H1.95V81.801H4.017L6.019 78.928H7.514ZM15.6641 86H14.3511V80.241H11.3611V82.633C11.3611 83.5083 11.2874 84.1843 11.1401 84.661C10.9928 85.1377 10.7371 85.48 10.3731 85.688C10.0178 85.896 9.49775 86 8.81309 86V84.661C9.19442 84.661 9.46309 84.6263 9.61909 84.557C9.77509 84.479 9.88342 84.3013 9.94409 84.024C10.0134 83.7467 10.0481 83.283 10.0481 82.633V78.928H15.6641V86ZM23.9674 78.928V86.013H22.6544V80.644L18.5594 86.013H17.0904L17.1034 86V78.928H18.4034V84.284L22.4854 78.928H23.9674ZM30.9442 78.928H32.2572V86H30.9442V83.114H26.6932V86H25.3932V78.928H26.6932V81.801H30.9442V78.928ZM40.5602 78.928V86.013H39.2472V80.644L35.1522 86.013H33.6832L33.6962 86V78.928H34.9962V84.284L39.0782 78.928H40.5602ZM48.8499 78.928L46.3799 82.464L48.8499 86H47.3549L45.3529 83.127H43.2859V86H41.9859V78.928H43.2859V81.801H45.3529L47.3549 78.928H48.8499ZM52.7126 78.824C53.8132 78.824 54.6452 79.1013 55.2086 79.656C55.7719 80.202 56.0536 80.9777 56.0536 81.983V86H54.7146L54.9356 83.725H54.7406C54.5586 84.5483 54.2379 85.1637 53.7786 85.571C53.3279 85.9783 52.7559 86.182 52.0626 86.182C51.1959 86.182 50.5502 85.9913 50.1256 85.61C49.7096 85.2287 49.5016 84.7173 49.5016 84.076C49.5016 83.2873 49.8049 82.698 50.4116 82.308C51.0269 81.9093 51.9196 81.71 53.0896 81.71H54.7276C54.6669 81.216 54.4632 80.8433 54.1166 80.592C53.7699 80.3407 53.3019 80.215 52.7126 80.215C52.2706 80.215 51.9066 80.3103 51.6206 80.501C51.3346 80.683 51.0616 80.969 50.8016 81.359L49.6836 80.579C50.0736 80.007 50.5069 79.5737 50.9836 79.279C51.4602 78.9757 52.0366 78.824 52.7126 78.824ZM52.2316 84.791C52.9336 84.791 53.4839 84.6047 53.8826 84.232C54.2812 83.8593 54.5369 83.3523 54.6496 82.711H53.0896C52.3356 82.711 51.7766 82.802 51.4126 82.984C51.0572 83.166 50.8796 83.452 50.8796 83.842C50.8796 84.128 50.9922 84.3577 51.2176 84.531C51.4429 84.7043 51.7809 84.791 52.2316 84.791Z" fill="#E1E1E1"/>
<path d="M86.3654 21.7783H75.0617V42.9585H69.3912V21.7783H58.125V17.0469H86.3654V21.7783Z" fill="white"/>
<path d="M34.7113 34.9221L51.3855 17.0469H55.4033V42.9585H49.7328V25.2333L32.9463 42.9585H29.0781V17.0469H34.7113V34.9221Z" fill="white"/>
<path d="M19.1526 42.9585L8.97564 31.5799H5.6705V42.9585H0V17.0469H5.6705V30.3031L18.9647 17.0469H25.8748L13.369 29.1013L26.5129 42.9585H19.1526Z" fill="white"/>
<path d="M119.132 58.951C134.694 58.951 147.31 46.335 147.31 30.7724C147.31 15.2097 134.694 2.59375 119.132 2.59375C103.569 2.59375 90.9531 15.2097 90.9531 30.7724C90.9531 46.335 103.569 58.951 119.132 58.951Z" fill="#333333"/>
<path d="M151.897 23.086C151.788 22.1926 149.044 20.2404 144.842 19.9764C140.633 19.7197 141.452 15.0937 141.452 15.0937C141.452 15.0937 141.337 13.5901 141.586 13.9564C141.835 14.3172 142.494 14.9201 142.494 14.9201C142.494 14.9201 146.901 15.0362 148.724 15.2481C150.548 15.4591 152.498 17.921 152.498 17.921C153.566 13.5069 156.898 12.9872 158.997 12.5943C161.095 12.2025 161.146 10.982 161.146 10.982C161.146 10.982 161.53 10.9628 161.741 13.6284C161.945 16.295 159.572 18.8254 156.393 19.3534C153.214 19.8796 153.7 22.9891 153.7 22.9891L154.02 26.3106C154.864 33.3657 153.598 37.6701 148.832 43.5677C146.657 46.2525 143.408 48.0649 140.504 49.247C141.022 50.5707 142.711 54.285 145.672 54.7088C139.033 57.2849 132.035 53.5204 129.221 51.6952C128.011 51.7911 126.496 51.9016 124.609 52.0295C114.881 52.6845 108.765 50.4939 104.678 47.9434C102.285 46.4453 101.294 45.0202 100.469 42.6624C100.271 42.0906 108.714 45.9775 116.869 42.1673C117.574 41.7754 117.502 41.6091 116.78 41.7498C112.347 42.6049 105.881 42.8479 99.7977 38.7617C98.5307 37.914 98.4583 36.5838 98.0139 34.242C97.5345 30.8438 96.3654 23.086 105.041 14.5183C106.799 12.9955 109.888 11.9063 111.766 11.257C113.019 11.5593 115.842 11.3796 123.761 10.7109C128.758 10.7109 133.46 14.0353 135.373 16.3291C140.055 21.97 143.299 30.1967 143.299 30.1967C143.299 30.1967 144.482 34.8419 149.248 33.2286C154.021 31.6044 152.006 23.9794 151.897 23.086Z" fill="white"/>
<path d="M111.947 12.1796L109.719 0.78495C109.719 0.78495 117.227 -0.684492 125.959 0.397658L124.781 10.8879C124.322 11.0711 120.023 11.9587 118.778 12.1796C118.778 12.1796 111.771 12.7856 111.947 12.1796Z" fill="white"/>
<path d="M117.232 2.59375H119.477V5.02532H121.871V7.27372H119.477V9.69182H117.232V7.27372H114.805V5.02532H117.232V2.59375Z" fill="#222222"/>
<path fill-rule="evenodd" clip-rule="evenodd" d="M111.515 34.0879C111.327 31.9347 112.917 30.0329 115.067 29.8434C117.218 29.654 119.11 31.246 119.298 33.3992C119.487 35.5515 117.896 37.4533 115.745 37.6428C113.596 37.8322 111.704 36.2411 111.515 34.0879Z" fill="#222222"/>
<path d="M113.147 34.1471C113.071 33.3129 113.719 32.5748 114.587 32.4985C115.454 32.423 116.215 33.0354 116.29 33.875C116.366 34.7092 115.718 35.4472 114.85 35.5236C113.983 35.5927 113.222 34.9803 113.147 34.1471Z" fill="white"/>
</svg>
