<svg width="121" height="67" viewBox="0 0 121 67" fill="none" xmlns="http://www.w3.org/2000/svg">
<path d="M1.09 55V48H4.1C4.86 48 5.45667 48.1533 5.89 48.46C6.32333 48.7667 6.54 49.2133 6.54 49.8C6.54 50.3733 6.33333 50.8133 5.92 51.12C5.50667 51.42 4.96333 51.57 4.29 51.57L4.47 51.27C5.25 51.27 5.84667 51.4267 6.26 51.74C6.68 52.0467 6.89 52.4967 6.89 53.09C6.89 53.69 6.67 54.16 6.23 54.5C5.79667 54.8333 5.15 55 4.29 55H1.09ZM2.08 54.21H4.27C4.80333 54.21 5.20333 54.1133 5.47 53.92C5.74333 53.72 5.88 53.4167 5.88 53.01C5.88 52.6033 5.74333 52.3067 5.47 52.12C5.20333 51.9333 4.80333 51.84 4.27 51.84H2.08V54.21ZM2.08 51.08H4.03C4.51667 51.08 4.88667 50.9833 5.14 50.79C5.4 50.5967 5.53 50.3133 5.53 49.94C5.53 49.56 5.4 49.2733 5.14 49.08C4.88667 48.8867 4.51667 48.79 4.03 48.79H2.08V51.08ZM10.7607 55.06C10.194 55.06 9.69404 54.9433 9.2607 54.71C8.83404 54.4767 8.5007 54.1567 8.2607 53.75C8.02737 53.3433 7.9107 52.8767 7.9107 52.35C7.9107 51.8233 8.02404 51.3567 8.2507 50.95C8.48404 50.5433 8.8007 50.2267 9.2007 50C9.60737 49.7667 10.064 49.65 10.5707 49.65C11.084 49.65 11.5374 49.7633 11.9307 49.99C12.324 50.2167 12.6307 50.5367 12.8507 50.95C13.0774 51.3567 13.1907 51.8333 13.1907 52.38C13.1907 52.42 13.1874 52.4667 13.1807 52.52C13.1807 52.5733 13.1774 52.6233 13.1707 52.67H8.6607V51.98H12.6707L12.2807 52.22C12.2874 51.88 12.2174 51.5767 12.0707 51.31C11.924 51.0433 11.7207 50.8367 11.4607 50.69C11.2074 50.5367 10.9107 50.46 10.5707 50.46C10.2374 50.46 9.9407 50.5367 9.6807 50.69C9.4207 50.8367 9.21737 51.0467 9.0707 51.32C8.92404 51.5867 8.8507 51.8933 8.8507 52.24V52.4C8.8507 52.7533 8.9307 53.07 9.0907 53.35C9.25737 53.6233 9.48737 53.8367 9.7807 53.99C10.074 54.1433 10.4107 54.22 10.7907 54.22C11.104 54.22 11.3874 54.1667 11.6407 54.06C11.9007 53.9533 12.1274 53.7933 12.3207 53.58L12.8507 54.2C12.6107 54.48 12.3107 54.6933 11.9507 54.84C11.5974 54.9867 11.2007 55.06 10.7607 55.06ZM15.5054 55V50.29L15.7454 50.54H13.5654V49.7H18.4054V50.54H16.2354L16.4654 50.29V55H15.5054ZM21.5127 55.06C20.946 55.06 20.446 54.9433 20.0127 54.71C19.586 54.4767 19.2527 54.1567 19.0127 53.75C18.7793 53.3433 18.6627 52.8767 18.6627 52.35C18.6627 51.8233 18.776 51.3567 19.0027 50.95C19.236 50.5433 19.5527 50.2267 19.9527 50C20.3593 49.7667 20.816 49.65 21.3227 49.65C21.836 49.65 22.2893 49.7633 22.6827 49.99C23.076 50.2167 23.3827 50.5367 23.6027 50.95C23.8293 51.3567 23.9427 51.8333 23.9427 52.38C23.9427 52.42 23.9393 52.4667 23.9327 52.52C23.9327 52.5733 23.9293 52.6233 23.9227 52.67H19.4127V51.98H23.4227L23.0327 52.22C23.0393 51.88 22.9693 51.5767 22.8227 51.31C22.676 51.0433 22.4727 50.8367 22.2127 50.69C21.9593 50.5367 21.6627 50.46 21.3227 50.46C20.9893 50.46 20.6927 50.5367 20.4327 50.69C20.1727 50.8367 19.9693 51.0467 19.8227 51.32C19.676 51.5867 19.6027 51.8933 19.6027 52.24V52.4C19.6027 52.7533 19.6827 53.07 19.8427 53.35C20.0093 53.6233 20.2393 53.8367 20.5327 53.99C20.826 54.1433 21.1627 54.22 21.5427 54.22C21.856 54.22 22.1393 54.1667 22.3927 54.06C22.6527 53.9533 22.8793 53.7933 23.0727 53.58L23.6027 54.2C23.3627 54.48 23.0627 54.6933 22.7027 54.84C22.3493 54.9867 21.9527 55.06 21.5127 55.06ZM28.242 55.06C27.802 55.06 27.3986 54.96 27.032 54.76C26.672 54.5533 26.382 54.25 26.162 53.85C25.9486 53.45 25.842 52.95 25.842 52.35C25.842 51.75 25.9453 51.25 26.152 50.85C26.3653 50.45 26.652 50.15 27.012 49.95C27.3786 49.75 27.7886 49.65 28.242 49.65C28.762 49.65 29.222 49.7633 29.622 49.99C30.022 50.2167 30.3386 50.5333 30.572 50.94C30.8053 51.34 30.922 51.81 30.922 52.35C30.922 52.89 30.8053 53.3633 30.572 53.77C30.3386 54.1767 30.022 54.4933 29.622 54.72C29.222 54.9467 28.762 55.06 28.242 55.06ZM25.432 56.94V49.7H26.352V51.13L26.292 52.36L26.392 53.59V56.94H25.432ZM28.162 54.22C28.502 54.22 28.8053 54.1433 29.072 53.99C29.3453 53.8367 29.5586 53.62 29.712 53.34C29.872 53.0533 29.952 52.7233 29.952 52.35C29.952 51.97 29.872 51.6433 29.712 51.37C29.5586 51.09 29.3453 50.8733 29.072 50.72C28.8053 50.5667 28.502 50.49 28.162 50.49C27.8286 50.49 27.5253 50.5667 27.252 50.72C26.9853 50.8733 26.772 51.09 26.612 51.37C26.4586 51.6433 26.382 51.97 26.382 52.35C26.382 52.7233 26.4586 53.0533 26.612 53.34C26.772 53.62 26.9853 53.8367 27.252 53.99C27.5253 54.1433 27.8286 54.22 28.162 54.22ZM32.3167 55V49.7H33.2767V53.56L36.5267 49.7H37.3967V55H36.4367V51.14L33.1967 55H32.3167ZM39.2601 55V49.7H40.2201V51.95H43.2401V49.7H44.2001V55H43.2401V52.78H40.2201V55H39.2601ZM49.3167 55V53.88L49.2667 53.67V51.76C49.2667 51.3533 49.1467 51.04 48.9067 50.82C48.6734 50.5933 48.3201 50.48 47.8467 50.48C47.5334 50.48 47.2267 50.5333 46.9267 50.64C46.6267 50.74 46.3734 50.8767 46.1667 51.05L45.7667 50.33C46.0401 50.11 46.3667 49.9433 46.7467 49.83C47.1334 49.71 47.5367 49.65 47.9567 49.65C48.6834 49.65 49.2434 49.8267 49.6367 50.18C50.0301 50.5333 50.2267 51.0733 50.2267 51.8V55H49.3167ZM47.5767 55.06C47.1834 55.06 46.8367 54.9933 46.5367 54.86C46.2434 54.7267 46.0167 54.5433 45.8567 54.31C45.6967 54.07 45.6167 53.8 45.6167 53.5C45.6167 53.2133 45.6834 52.9533 45.8167 52.72C45.9567 52.4867 46.1801 52.3 46.4867 52.16C46.8001 52.02 47.2201 51.95 47.7467 51.95H49.4267V52.64H47.7867C47.3067 52.64 46.9834 52.72 46.8167 52.88C46.6501 53.04 46.5667 53.2333 46.5667 53.46C46.5667 53.72 46.6701 53.93 46.8767 54.09C47.0834 54.2433 47.3701 54.32 47.7367 54.32C48.0967 54.32 48.4101 54.24 48.6767 54.08C48.9501 53.92 49.1467 53.6867 49.2667 53.38L49.4567 54.04C49.3301 54.3533 49.1067 54.6033 48.7867 54.79C48.4667 54.97 48.0634 55.06 47.5767 55.06ZM54.7654 55.06C54.3254 55.06 53.9221 54.96 53.5554 54.76C53.1954 54.5533 52.9054 54.25 52.6854 53.85C52.4721 53.45 52.3654 52.95 52.3654 52.35C52.3654 51.75 52.4687 51.25 52.6754 50.85C52.8887 50.45 53.1754 50.15 53.5354 49.95C53.9021 49.75 54.3121 49.65 54.7654 49.65C55.2854 49.65 55.7454 49.7633 56.1454 49.99C56.5454 50.2167 56.8621 50.5333 57.0954 50.94C57.3287 51.34 57.4454 51.81 57.4454 52.35C57.4454 52.89 57.3287 53.3633 57.0954 53.77C56.8621 54.1767 56.5454 54.4933 56.1454 54.72C55.7454 54.9467 55.2854 55.06 54.7654 55.06ZM51.9554 56.94V49.7H52.8754V51.13L52.8154 52.36L52.9154 53.59V56.94H51.9554ZM54.6854 54.22C55.0254 54.22 55.3287 54.1433 55.5954 53.99C55.8687 53.8367 56.0821 53.62 56.2354 53.34C56.3954 53.0533 56.4754 52.7233 56.4754 52.35C56.4754 51.97 56.3954 51.6433 56.2354 51.37C56.0821 51.09 55.8687 50.8733 55.5954 50.72C55.3287 50.5667 55.0254 50.49 54.6854 50.49C54.3521 50.49 54.0487 50.5667 53.7754 50.72C53.5087 50.8733 53.2954 51.09 53.1354 51.37C52.9821 51.6433 52.9054 51.97 52.9054 52.35C52.9054 52.7233 52.9821 53.0533 53.1354 53.34C53.2954 53.62 53.5087 53.8367 53.7754 53.99C54.0487 54.1433 54.3521 54.22 54.6854 54.22ZM58.8402 55V49.7H59.8002V51.95H62.8202V49.7H63.7802V55H62.8202V52.78H59.8002V55H58.8402ZM68.8968 55V53.88L68.8468 53.67V51.76C68.8468 51.3533 68.7268 51.04 68.4868 50.82C68.2535 50.5933 67.9001 50.48 67.4268 50.48C67.1135 50.48 66.8068 50.5333 66.5068 50.64C66.2068 50.74 65.9535 50.8767 65.7468 51.05L65.3468 50.33C65.6201 50.11 65.9468 49.9433 66.3268 49.83C66.7135 49.71 67.1168 49.65 67.5368 49.65C68.2635 49.65 68.8235 49.8267 69.2168 50.18C69.6101 50.5333 69.8068 51.0733 69.8068 51.8V55H68.8968ZM67.1568 55.06C66.7635 55.06 66.4168 54.9933 66.1168 54.86C65.8235 54.7267 65.5968 54.5433 65.4368 54.31C65.2768 54.07 65.1968 53.8 65.1968 53.5C65.1968 53.2133 65.2635 52.9533 65.3968 52.72C65.5368 52.4867 65.7601 52.3 66.0668 52.16C66.3801 52.02 66.8001 51.95 67.3268 51.95H69.0068V52.64H67.3668C66.8868 52.64 66.5635 52.72 66.3968 52.88C66.2301 53.04 66.1468 53.2333 66.1468 53.46C66.1468 53.72 66.2501 53.93 66.4568 54.09C66.6635 54.2433 66.9501 54.32 67.3168 54.32C67.6768 54.32 67.9901 54.24 68.2568 54.08C68.5301 53.92 68.7268 53.6867 68.8468 53.38L69.0368 54.04C68.9101 54.3533 68.6868 54.6033 68.3668 54.79C68.0468 54.97 67.6435 55.06 67.1568 55.06ZM74.9255 55V53.14L75.0755 53.32H73.3855C72.6788 53.32 72.1255 53.17 71.7255 52.87C71.3321 52.57 71.1355 52.1333 71.1355 51.56C71.1355 50.9467 71.3455 50.4833 71.7655 50.17C72.1921 49.8567 72.7588 49.7 73.4655 49.7H75.7855V55H74.9255ZM71.0855 55L72.5255 52.97H73.5155L72.1155 55H71.0855ZM74.9255 52.84V50.27L75.0755 50.54H73.4955C73.0555 50.54 72.7155 50.6233 72.4755 50.79C72.2355 50.95 72.1155 51.2167 72.1155 51.59C72.1155 52.2833 72.5621 52.63 73.4555 52.63H75.0755L74.9255 52.84ZM4.77 66L2.72 63.42L3.51 62.94L5.9 66H4.77ZM0.93 66V60.7H1.89V66H0.93ZM1.6 63.76V62.94H3.35V63.76H1.6ZM3.59 63.46L2.7 63.34L4.73 60.7H5.76L3.59 63.46ZM6.02656 65.99L6.08656 65.18C6.13323 65.1867 6.17656 65.1933 6.21656 65.2C6.25656 65.2067 6.29323 65.21 6.32656 65.21C6.5399 65.21 6.70656 65.1367 6.82656 64.99C6.95323 64.8433 7.04656 64.65 7.10656 64.41C7.16656 64.1633 7.2099 63.8867 7.23656 63.58C7.26323 63.2733 7.28323 62.9667 7.29656 62.66L7.38656 60.7H11.4566V66H10.4966V61.26L10.7266 61.54H8.00656L8.22656 61.25L8.15656 62.72C8.13656 63.1867 8.0999 63.6233 8.04656 64.03C7.99323 64.4367 7.9099 64.7933 7.79656 65.1C7.6899 65.4067 7.5399 65.6467 7.34656 65.82C7.1599 65.9933 6.91656 66.08 6.61656 66.08C6.5299 66.08 6.43656 66.07 6.33656 66.05C6.24323 66.0367 6.1399 66.0167 6.02656 65.99ZM13.3128 66V60.7H14.2728V64.56L17.5228 60.7H18.3928V66H17.4328V62.14L14.1928 66H13.3128ZM20.2562 66V60.7H21.2162V62.95H24.2362V60.7H25.1962V66H24.2362V63.78H21.2162V66H20.2562ZM27.0628 66V60.7H28.0228V64.56L31.2728 60.7H32.1428V66H31.1828V62.14L27.9428 66H27.0628ZM37.8462 66L35.7962 63.42L36.5862 62.94L38.9762 66H37.8462ZM34.0062 66V60.7H34.9662V66H34.0062ZM34.6762 63.76V62.94H36.4262V63.76H34.6762ZM36.6662 63.46L35.7762 63.34L37.8062 60.7H38.8362L36.6662 63.46ZM43.1351 66V64.88L43.0851 64.67V62.76C43.0851 62.3533 42.9651 62.04 42.7251 61.82C42.4917 61.5933 42.1384 61.48 41.6651 61.48C41.3517 61.48 41.0451 61.5333 40.7451 61.64C40.4451 61.74 40.1917 61.8767 39.9851 62.05L39.5851 61.33C39.8584 61.11 40.1851 60.9433 40.5651 60.83C40.9517 60.71 41.3551 60.65 41.7751 60.65C42.5017 60.65 43.0617 60.8267 43.4551 61.18C43.8484 61.5333 44.0451 62.0733 44.0451 62.8V66H43.1351ZM41.3951 66.06C41.0017 66.06 40.6551 65.9933 40.3551 65.86C40.0617 65.7267 39.8351 65.5433 39.6751 65.31C39.5151 65.07 39.4351 64.8 39.4351 64.5C39.4351 64.2133 39.5017 63.9533 39.6351 63.72C39.7751 63.4867 39.9984 63.3 40.3051 63.16C40.6184 63.02 41.0384 62.95 41.5651 62.95H43.2451V63.64H41.6051C41.1251 63.64 40.8017 63.72 40.6351 63.88C40.4684 64.04 40.3851 64.2333 40.3851 64.46C40.3851 64.72 40.4884 64.93 40.6951 65.09C40.9017 65.2433 41.1884 65.32 41.5551 65.32C41.9151 65.32 42.2284 65.24 42.4951 65.08C42.7684 64.92 42.9651 64.6867 43.0851 64.38L43.2751 65.04C43.1484 65.3533 42.9251 65.6033 42.6051 65.79C42.2851 65.97 41.8817 66.06 41.3951 66.06Z" fill="#7A7A7A"/>
<path d="M64.387 16.237H55.9594V32.0282H51.7317V16.237H43.332V12.7095H64.387V16.237Z" fill="white"/>
<path d="M25.8796 26.0366L38.3112 12.7095H41.3067V32.0282H37.079V18.813L24.5636 32.0282H21.6797V12.7095H25.8796V26.0366Z" fill="white"/>
<path d="M14.2795 32.0282L6.6919 23.5448H4.22771V32.0282H0V12.7095H4.22771V22.5928L14.1394 12.7095H19.2913L9.96744 21.6968L19.767 32.0282H14.2795Z" fill="white"/>
<path d="M88.8233 43.9533C100.426 43.9533 109.832 34.5473 109.832 22.9444C109.832 11.3415 100.426 1.93555 88.8233 1.93555C77.2205 1.93555 67.8145 11.3415 67.8145 22.9444C67.8145 34.5473 77.2205 43.9533 88.8233 43.9533Z" fill="#191919"/>
<path d="M113.254 17.2132C113.173 16.5471 111.127 15.0916 107.994 14.8948C104.857 14.7034 105.467 11.2544 105.467 11.2544C105.467 11.2544 105.381 10.1334 105.567 10.4065C105.753 10.6755 106.244 11.125 106.244 11.125C106.244 11.125 109.529 11.2115 110.889 11.3695C112.248 11.5269 113.702 13.3624 113.702 13.3624C114.499 10.0714 116.983 9.68388 118.548 9.39102C120.112 9.09883 120.15 8.18892 120.15 8.18892C120.15 8.18892 120.436 8.17461 120.594 10.162C120.746 12.1501 118.977 14.0366 116.607 14.4303C114.236 14.8226 114.599 17.141 114.599 17.141L114.837 19.6174C115.466 24.8773 114.522 28.0865 110.969 32.4836C109.348 34.4853 106.925 35.8365 104.76 36.7178C105.146 37.7047 106.405 40.474 108.613 40.79C103.663 42.7106 98.4463 39.9039 96.3479 38.5431C95.4462 38.6146 94.3163 38.697 92.9092 38.7924C85.6564 39.2807 81.0966 37.6475 78.0495 35.7459C76.2657 34.629 75.5268 33.5665 74.9117 31.8086C74.764 31.3823 81.0585 34.2802 87.1391 31.4395C87.6642 31.1473 87.6111 31.0233 87.0724 31.1282C83.7678 31.7657 78.9464 31.9469 74.4112 28.9004C73.4665 28.2684 73.4125 27.2766 73.0812 25.5307C72.7238 22.9971 71.8521 17.2132 78.32 10.8255C79.6311 9.69012 81.9342 8.87806 83.3339 8.39392C84.2684 8.61936 86.3734 8.48536 92.2769 7.98682C96.0026 7.98682 99.5086 10.4653 100.935 12.1755C104.425 16.3812 106.844 22.5147 106.844 22.5147C106.844 22.5147 107.726 25.9779 111.279 24.7752C114.838 23.5642 113.335 17.8793 113.254 17.2132Z" fill="white"/>
<path d="M83.4677 9.08063L81.8066 0.585229C81.8066 0.585229 87.4043 -0.510331 93.9147 0.296479L93.0363 8.11764C92.6943 8.25419 89.4894 8.91597 88.561 9.08063C88.561 9.08063 83.3365 9.53245 83.4677 9.08063Z" fill="white"/>
<path d="M87.4072 1.93213H89.0808V3.74502H90.8663V5.42133H89.0808V7.22418H87.4072V5.42133H85.5977V3.74502H87.4072V1.93213Z" fill="#191919"/>
<path fill-rule="evenodd" clip-rule="evenodd" d="M83.1461 25.4166C83.0055 23.8113 84.1911 22.3934 85.7944 22.2521C87.3978 22.1109 88.8083 23.2978 88.9489 24.9032C89.0895 26.5079 87.9032 27.9258 86.2999 28.067C84.6972 28.2083 83.2867 27.022 83.1461 25.4166Z" fill="#191919"/>
<path d="M84.3599 25.4599C84.3037 24.838 84.7864 24.2877 85.4337 24.2308C86.0804 24.1745 86.6475 24.6311 86.7037 25.257C86.7599 25.879 86.2772 26.4293 85.6299 26.4862C84.9832 26.5377 84.4162 26.0811 84.3599 25.4599Z" fill="#06BAB5"/>
</svg>
