<svg width="121" height="44" viewBox="0 0 121 44" fill="none" xmlns="http://www.w3.org/2000/svg">
<path d="M64.387 16.2375H55.9594V32.0287H51.7317V16.2375H43.332V12.71H64.387V16.2375Z" fill="#5B5F74"/>
<path d="M25.8796 26.0371L38.3112 12.71H41.3067V32.0287H37.079V18.8135L24.5636 32.0287H21.6797V12.71H25.8796V26.0371Z" fill="#5B5F74"/>
<path d="M14.2795 32.0287L6.6919 23.5453H4.22771V32.0287H0V12.71H4.22771V22.5933L14.1394 12.71H19.2913L9.96744 21.6973L19.767 32.0287H14.2795Z" fill="#5B5F74"/>
<path d="M88.8233 43.9533C100.426 43.9533 109.832 34.5473 109.832 22.9444C109.832 11.3415 100.426 1.93555 88.8233 1.93555C77.2205 1.93555 67.8145 11.3415 67.8145 22.9444C67.8145 34.5473 77.2205 43.9533 88.8233 43.9533Z" fill="#D9EDEC"/>
<path d="M113.254 17.2137C113.173 16.5476 111.127 15.0921 107.994 14.8953C104.857 14.7039 105.467 11.2549 105.467 11.2549C105.467 11.2549 105.381 10.1339 105.567 10.407C105.753 10.676 106.244 11.1255 106.244 11.1255C106.244 11.1255 109.529 11.212 110.889 11.37C112.248 11.5274 113.702 13.3629 113.702 13.3629C114.499 10.0719 116.983 9.68437 118.548 9.3915C120.112 9.09932 120.15 8.1894 120.15 8.1894C120.15 8.1894 120.436 8.1751 120.594 10.1625C120.746 12.1505 118.977 14.0371 116.607 14.4308C114.236 14.8231 114.599 17.1415 114.599 17.1415L114.837 19.6179C115.466 24.8778 114.522 28.087 110.969 32.4841C109.348 34.4857 106.925 35.837 104.76 36.7183C105.146 37.7052 106.405 40.4744 108.613 40.7905C103.663 42.7111 98.4463 39.9044 96.3479 38.5436C95.4462 38.6151 94.3163 38.6975 92.9092 38.7929C85.6564 39.2812 81.0966 37.648 78.0495 35.7464C76.2657 34.6295 75.5268 33.567 74.9117 31.8091C74.764 31.3828 81.0585 34.2807 87.1391 31.44C87.6642 31.1478 87.6111 31.0238 87.0724 31.1287C83.7678 31.7662 78.9464 31.9474 74.4112 28.9009C73.4665 28.2689 73.4125 27.2771 73.0812 25.5311C72.7238 22.9976 71.8521 17.2137 78.32 10.826C79.6311 9.6906 81.9342 8.87855 83.3339 8.39441C84.2684 8.61984 86.3734 8.48585 92.2769 7.9873C96.0026 7.9873 99.5086 10.4658 100.935 12.176C104.425 16.3816 106.844 22.5152 106.844 22.5152C106.844 22.5152 107.726 25.9784 111.279 24.7756C114.838 23.5647 113.335 17.8797 113.254 17.2137Z" fill="#06BAB5"/>
<path d="M83.4677 9.08063L81.8066 0.585229C81.8066 0.585229 87.4043 -0.510331 93.9147 0.296479L93.0363 8.11764C92.6943 8.25419 89.4894 8.91597 88.561 9.08063C88.561 9.08063 83.3365 9.53245 83.4677 9.08063Z" fill="#06BAB5"/>
<path d="M87.4072 1.93164H89.0808V3.74453H90.8663V5.42084H89.0808V7.22369H87.4072V5.42084H85.5977V3.74453H87.4072V1.93164Z" fill="white"/>
<path fill-rule="evenodd" clip-rule="evenodd" d="M83.1461 25.4162C83.0055 23.8108 84.1911 22.3929 85.7944 22.2516C87.3978 22.1104 88.8083 23.2973 88.9489 24.9027C89.0895 26.5074 87.9032 27.9253 86.2999 28.0665C84.6972 28.2078 83.2867 27.0215 83.1461 25.4162Z" fill="white"/>
<path d="M84.3599 25.4604C84.3037 24.8384 84.7864 24.2881 85.4337 24.2312C86.0804 24.175 86.6475 24.6316 86.7037 25.2575C86.7599 25.8794 86.2772 26.4297 85.6299 26.4866C84.9832 26.5382 84.4162 26.0816 84.3599 25.4604Z" fill="#06BAB5"/>
</svg>
