<svg width="217" height="200" viewBox="0 0 217 200" fill="none" xmlns="http://www.w3.org/2000/svg">
<path d="M93.6248 91.0633C93.6248 91.0633 121.502 67.6845 140.186 81.5341C158.87 95.3836 159.136 119.376 154.599 128.184C150.687 135.781 147.478 140.378 146.64 141.56C147.853 147.848 149.932 166.142 137.736 182.916C118.593 209.246 115.518 186.578 112.849 175.932C110.304 165.778 106.44 155.584 95.2509 154.558C83.9119 155.483 80.0829 165.719 77.5222 175.932C74.8531 186.578 71.7782 209.245 52.6352 182.916C37.5861 162.217 44.2188 139.395 44.2188 139.395C44.2188 139.395 28.2341 111.635 38.6135 94.3166C48.9928 76.9979 66.8456 76.9968 79.1233 80.733C91.401 84.4702 100.875 100.005 100.875 100.005" stroke="#FFFFFF" stroke-width="8" stroke-miterlimit="3.8637" stroke-linecap="round"/>
<path fill-rule="evenodd" clip-rule="evenodd" d="M138.956 116.071L127.517 121.102L122.485 132.542L117.455 121.102L106.016 116.071L117.455 111.041L122.485 99.6016L127.517 111.041L138.956 116.071Z" stroke="#FFFFFF" stroke-width="5.6693" stroke-miterlimit="3.8637" stroke-linecap="round"/>
<path fill-rule="evenodd" clip-rule="evenodd" d="M37.2105 63.1839L27.0669 67.645L22.6047 77.7897L18.1436 67.645L8 63.1839L18.1436 58.7228L22.6047 48.5781L27.0669 58.7228L37.2105 63.1839Z" stroke="#FFFFFF" stroke-width="5.6693" stroke-miterlimit="3.8637"/>
<path d="M181.309 71.3906L170.18 82.4052" stroke="#FFFFFF" stroke-width="5.6693" stroke-miterlimit="3.8637" stroke-linecap="round"/>
<path d="M133.812 32.8359L140.634 39.6022" stroke="#FFFFFF" stroke-width="6.8031" stroke-miterlimit="3.8637" stroke-linecap="round"/>
<path fill-rule="evenodd" clip-rule="evenodd" d="M141.012 40.216C135.633 46.2407 142.141 54.0969 142.141 54.0969L181.277 93.2122C183.489 94.9749 185.641 96.2391 188.79 94.128L194.572 88.2441C196.652 84.7218 195.251 81.1024 193.85 79.3125L156.984 42.5097C156.984 42.5097 146.656 33.8941 141.012 40.216Z" stroke="#FFFFFF" stroke-width="6.8031" stroke-miterlimit="3.8637" stroke-linecap="round"/>
<path d="M212.97 98.1642C206.84 99.6422 199.542 98.5564 192.047 90.9922" stroke="#FFFFFF" stroke-width="6.8031" stroke-miterlimit="3.8637" stroke-linecap="round"/>
<path d="M105 19.2974L110.502 17.4898C110.502 17.4898 116.054 15.7176 119.012 18.2689C120.725 19.7459 123.457 22.4588 125.454 24.4813" stroke="#FFFFFF" stroke-width="6.8031" stroke-miterlimit="3.8637" stroke-linecap="round"/>
<path d="M126.83 15.0351C120.108 23.3374 117.498 32.3671 121.001 35.2035C124.504 38.0398 132.793 33.6086 139.515 25.3062C146.238 17.0039 148.848 7.97416 145.345 5.13785C141.842 2.30154 133.553 6.73267 126.83 15.0351Z" stroke="#FFFFFF" stroke-width="6.8031" stroke-miterlimit="3.8637" stroke-linecap="round"/>
</svg>
