<svg width="205" height="217" viewBox="0 0 205 217" fill="none" xmlns="http://www.w3.org/2000/svg">
<path d="M135.918 143.409C143.559 132.551 144.307 123.289 141.951 111.471C138.791 95.6137 128.124 83.1191 107.611 81.7881C83.2599 80.2084 73.6377 106.139 73.6377 106.139C73.6377 106.139 63.8749 80.2084 39.5237 81.7881C19.0113 83.1191 8.34393 95.6149 5.18343 111.471C1.85078 128.194 4.73226 139.8 24.5684 158.056C47.2117 178.895 75.2185 200.437 73.7232 212.232C72.813 205.052 82.6647 194.261 95.7173 182.215" stroke="#06BAB5" stroke-width="8" stroke-miterlimit="3.8637" stroke-linecap="round" stroke-linejoin="round"/>
<path d="M103.319 163.591C110.955 163.591 117.146 157.401 117.146 149.764C117.146 142.128 110.955 135.938 103.319 135.938C95.6827 135.938 89.4922 142.128 89.4922 149.764C89.4922 157.401 95.6827 163.591 103.319 163.591Z" stroke="#06BAB5" stroke-width="8" stroke-miterlimit="3.8637" stroke-linecap="round" stroke-linejoin="round"/>
<path d="M77.2734 149.793C77.2734 135.392 88.9468 123.719 103.347 123.719" stroke="#06BAB5" stroke-width="8" stroke-miterlimit="3.8637" stroke-linecap="round" stroke-linejoin="round"/>
<path d="M122.57 167.789C122.57 167.789 132.757 180.422 152.835 179.706C174.926 178.92 184.918 157.162 184.918 144.012C184.918 130.863 184.918 79.3125 184.918 79.3125" stroke="#06BAB5" stroke-width="8" stroke-miterlimit="3.8637" stroke-linecap="round" stroke-linejoin="round"/>
<path d="M215.195 15.1215L211.056 13.1053C211.056 13.1053 208.056 11.8316 209.875 7.25347C211.693 2.67642 217.545 3.85668 220.41 5.23722C221.666 5.84142 223.086 6.7539 224.287 7.74965C225.827 9.02668 226.98 10.4173 227.005 15.7932C227.005 19.4477 227.005 23.9595 227.005 23.9595C227.005 23.9595 226.686 41.5003 222.215 51.6119C217.71 61.7977 210.312 79.5816 185.102 79.5816" stroke="#06BAB5" stroke-width="8" stroke-miterlimit="3.8637" stroke-linecap="round" stroke-linejoin="round"/>
<path d="M154.355 15.1215L158.496 13.1053C158.496 13.1053 161.495 11.8316 159.677 7.25347C157.859 2.67642 152.007 3.85668 149.141 5.23722C147.886 5.84142 146.466 6.7539 145.265 7.74965C143.725 9.02668 142.572 10.4173 142.547 15.7932C142.547 19.4477 142.547 23.9595 142.547 23.9595C142.547 23.9595 142.865 41.5003 147.338 51.6119C151.842 61.7977 159.241 79.5816 184.451 79.5816" stroke="#06BAB5" stroke-width="8" stroke-miterlimit="3.8637" stroke-linecap="round" stroke-linejoin="round"/>
</svg>
