<svg width="173" height="192" viewBox="0 0 173 192" fill="none" xmlns="http://www.w3.org/2000/svg">
<path d="M127.737 35.7984C133.797 39.5014 139.099 44.7073 144.523 51.6193C148.624 56.8473 152.768 62.6363 156.572 69.0533L156.873 68.9543C164.455 60.8133 159.687 48.1223 157.957 38.3823C156.163 28.2843 157.034 18.7343 158.785 8.71333C144.421 11.7163 135.259 23.9574 127.737 35.7984ZM85.622 77.9283C91.069 77.9283 95.997 80.1373 99.561 83.7083C101.9 86.0513 103.653 88.9804 104.58 92.2554C104.956 93.6914 104.684 94.8193 104.069 95.6653C104.035 96.1273 104.018 96.5933 104.018 97.0633C104.018 107.507 112.484 115.973 122.928 115.973C133.372 115.973 141.838 107.507 141.838 97.0633C141.838 86.6193 133.372 78.1533 122.928 78.1533C114.109 78.1533 106.699 84.1904 104.608 92.3584C103.653 88.9794 101.9 86.0513 99.561 83.7083C104.2 75.6103 112.926 70.1533 122.928 70.1533C130.266 70.1533 136.918 73.0903 141.773 77.8533L149.676 73.1044C146.095 67.0684 142.168 61.5773 138.229 56.5563C125.521 40.3583 114.549 34.9053 86.806 36.9234H86.226C58.471 34.9044 47.331 40.3653 34.629 56.5563C30.667 61.6063 26.717 67.1333 23.119 73.2103L30.047 77.3743C34.853 72.8953 41.301 70.1543 48.39 70.1543C58.372 70.1543 67.084 75.5894 71.729 83.6604C75.29 80.1184 80.199 77.9283 85.622 77.9283ZM66.663 92.2554C64.534 84.1224 57.159 78.1543 48.39 78.1543C37.946 78.1543 29.48 86.6203 29.48 97.0643C29.48 107.508 37.946 115.974 48.39 115.974C58.834 115.974 67.3 107.508 67.3 97.0643C67.3 96.6313 67.285 96.2013 67.257 95.7743C66.567 94.8963 66.257 93.6914 66.663 92.2554ZM91.866 126.822C88.842 126.242 85.653 126.384 85.653 126.384C85.653 126.384 82.471 126.243 79.453 126.822C78.305 127.042 76.271 127.456 75.555 128.563C75.406 132.584 79.308 137.515 85.653 138.418C92.006 137.507 95.885 132.425 95.736 128.411C95.191 127.57 92.635 126.969 91.866 126.822ZM73.125 178.751C74.634 181.295 78.419 183.832 84.413 183.832C91.153 183.832 95.101 180.624 96.159 177.805L95.863 177.482C93.438 174.806 89.144 167.983 85.467 167.847C83.222 167.931 77.7 173.982 73.125 178.751ZM64.377 176.371C65.7082 175.26 67.127 173.8 68.457 172.324C73.337 166.909 78.064 160.388 84.793 159.876C84.94 159.855 85.089 159.843 85.24 159.843L85.465 159.845L85.689 159.843C85.838 159.843 85.986 159.854 86.132 159.875C93.293 160.416 98.004 167.743 103.148 173.279C103.34 173.444 103.517 173.629 103.673 173.836C104.888 175.106 106.133 176.26 107.444 177.189C124.527 189.286 146.046 162.025 114.162 144.809C109.754 142.429 104.815 140.342 99.919 139.017C97.38 142.022 93.779 144.517 89.547 145.739V149.205C89.547 154.538 81.547 154.538 81.547 149.205V145.685C77.322 144.435 73.76 141.946 71.267 138.958C70.459 139.185 69.122 139.582 67.443 140.163C57.069 143.75 42.133 151.311 40.563 163.458C38.546 179.058 54.254 183.623 63.089 177.366C63.525 177.058 63.953 176.725 64.377 176.371ZM12.186 76.5033C-5.268 61.2433 8.99701 42.3723 7.55701 23.5103C6.77601 13.2863 4.836 4.90434 4.836 4.90434C3.047 -2.82366 15.61 0.858331 18.187 1.55833C33.608 5.75033 43.88 19.3723 52.084 32.3763C61.021 28.8733 71.834 27.8793 86.516 28.9243C101.022 27.8923 111.71 28.8503 120.539 32.2513C121.431 30.8893 122.893 28.7103 124.765 26.1163C134.771 12.2433 145.244 0.525331 163.657 0.00233107C166.573 -0.0806689 168.341 2.06234 167.683 4.90434C167.683 4.90434 165.743 13.2873 164.962 23.5103C163.618 41.1133 177.199 63.1393 160.649 76.4603C167.735 90.4113 172.857 107.038 172.857 126.902C172.857 147.636 158.046 164.56 138.397 168.02C136.787 183.666 119.202 194.944 102.402 183.298C98.919 188.735 91.519 191.832 84.412 191.832C77.753 191.832 70.838 189.113 67.127 184.298C51.245 194.964 33.828 183.295 32.485 167.538C31.659 167.321 30.668 167.034 29.553 166.663C11.764 160.747 0 146.827 0 126.902C0.001 107.059 5.111 90.4453 12.186 76.5033ZM15.821 68.9763C15.959 69.0183 16.099 69.0704 16.239 69.1304C20.056 62.6824 24.217 56.8683 28.335 51.6193C33.666 44.8243 38.904 39.6793 44.863 35.9893C44.013 34.7083 42.781 32.8973 41.266 30.7953C33.578 20.1373 27.259 11.5403 13.734 8.71232C17.566 30.6423 14.764 34.3103 11.403 54.9903C10.585 60.0233 12.425 65.2443 15.821 68.9763ZM25.032 83.6933L19.267 80.2294C12.671 93.2604 8.00101 108.619 8.00101 126.902C8.00101 149.549 25.787 157.227 33.224 159.446C35.873 149.606 45.188 139.394 64.829 132.602C65.893 132.234 66.838 131.931 67.628 131.689C66.24 124.681 70.975 117.926 85.653 118.384C86.485 118.358 89.915 118.301 93.372 118.964C102.129 120.643 104.857 126.141 103.636 131.792C104.353 132.015 105.182 132.284 106.099 132.601C125.948 139.465 135.288 149.937 137.799 159.943C143.483 158.564 164.857 151.727 164.857 126.901C164.857 108.566 160.161 93.1724 153.536 80.1174L146.613 84.2773C148.671 88.0803 149.839 92.4353 149.839 97.0623C149.839 111.924 137.791 123.972 122.929 123.972C108.067 123.972 96.019 111.924 96.019 97.0623C96.019 95.6513 96.127 94.2663 96.337 92.9144C94.523 88.7974 90.404 85.9274 85.623 85.9274C80.889 85.9274 76.805 88.7403 74.964 92.7913C75.186 94.1823 75.301 95.6093 75.301 97.0633C75.301 111.925 63.253 123.973 48.391 123.973C33.529 123.973 21.481 111.925 21.481 97.0633C21.48 92.1973 22.772 87.6323 25.032 83.6933ZM122.928 89.8423C126.917 89.8423 130.15 93.0753 130.15 97.0643C130.15 101.053 126.917 104.287 122.928 104.287C118.94 104.287 115.706 101.054 115.706 97.0643C115.706 93.0753 118.94 89.8423 122.928 89.8423ZM48.39 89.8423C52.379 89.8423 55.612 93.0753 55.612 97.0643C55.612 101.053 52.379 104.287 48.39 104.287C44.402 104.287 41.168 101.054 41.168 97.0643C41.168 93.0753 44.402 89.8423 48.39 89.8423Z" fill="#06BAB5"/>
</svg>
