<svg width="219" height="212" viewBox="0 0 219 212" fill="none" xmlns="http://www.w3.org/2000/svg">
<path d="M168.344 94.8347V0" stroke="#06BAB5" stroke-width="7" stroke-miterlimit="3.8637"/>
<path fill-rule="evenodd" clip-rule="evenodd" d="M141.671 19.3906L154.912 19.3927V33.0545C154.912 33.0545 154.912 45.7218 144.015 45.7218H143.683H143.351C132.453 45.7218 132.453 33.0545 132.453 33.0545V19.3927H134.665L141.671 19.3906Z" stroke="#06BAB5" stroke-width="7" stroke-miterlimit="3.8637"/>
<path d="M144.047 57.2433V46.125" stroke="#06BAB5" stroke-width="7" stroke-miterlimit="3.8637"/>
<path d="M144.047 19.7503V6.91406H167.613" stroke="#06BAB5" stroke-width="7" stroke-miterlimit="3.8637"/>
<path d="M215.436 122.486H89.2251L9.54866 86.5475C3.78667 82.6613 2.26597 74.8393 6.15316 69.0773C8.88898 65.0212 13.2447 62.9643 17.7895 63.5187L99.2932 97.3177H215.436" stroke="#06BAB5" stroke-width="7" stroke-miterlimit="3.8637" stroke-linecap="round"/>
<path d="M24.0156 66.0398C24.0156 66.0398 30.4069 52.9618 41.4352 53.6852C52.4634 54.4086 58.6686 60.6138 60.8388 64.9542C63.0101 69.2957 63.2508 81.7708 63.2508 81.7708" stroke="#06BAB5" stroke-width="7" stroke-miterlimit="3.8637"/>
<path d="M98.8099 97.4219L94.3672 122.411" stroke="#06BAB5" stroke-width="7" stroke-miterlimit="3.8637"/>
<path fill-rule="evenodd" clip-rule="evenodd" d="M4.39161 130.316C4.39161 126.095 7.81444 122.672 12.0365 122.672H192.114C196.336 122.672 199.759 126.095 199.759 130.316V132.941C199.759 137.163 196.336 140.585 192.114 140.585H12.0355C7.81339 140.585 4.39062 137.163 4.39062 132.941L4.39161 130.316Z" stroke="#06BAB5" stroke-width="7" stroke-miterlimit="3.8637"/>
<path d="M40.0076 207.632C44.8875 207.632 48.8434 203.676 48.8434 198.797C48.8434 193.917 44.8875 189.961 40.0076 189.961C35.1278 189.961 31.1719 193.917 31.1719 198.797C31.1719 203.676 35.1278 207.632 40.0076 207.632Z" stroke="#06BAB5" stroke-width="7" stroke-miterlimit="3.8637"/>
<path d="M174.499 207.63C179.378 207.63 183.334 203.675 183.334 198.796C183.334 193.916 179.378 189.961 174.499 189.961C169.619 189.961 165.664 193.916 165.664 198.796C165.664 203.675 169.619 207.63 174.499 207.63Z" stroke="#06BAB5" stroke-width="7" stroke-miterlimit="3.8637"/>
<path d="M40.375 189.64V177.633" stroke="#06BAB5" stroke-width="7" stroke-miterlimit="3.8637"/>
<path d="M48.2221 140.367L36.7031 178.096H44.8064L74.6767 140.611" stroke="#06BAB5" stroke-width="7" stroke-miterlimit="3.8637"/>
<path d="M174.109 189.664V177.656" stroke="#06BAB5" stroke-width="7" stroke-miterlimit="3.8637"/>
<path d="M166.744 142.094L177.747 178.126H169.643L141.047 142.978" stroke="#06BAB5" stroke-width="7" stroke-miterlimit="3.8637"/>
<path d="M167.246 141.969L178.447 178.654L174.61 178.653V189.667H173.599V178.653L169.42 178.654L140.672 143.319L141.457 142.681L169.902 177.642H177.081L166.278 142.264L167.246 141.969Z" stroke="#06BAB5" stroke-width="7" stroke-miterlimit="3.8637"/>
<path d="M61.2344 158.016H152.951" stroke="#06BAB5" stroke-width="7" stroke-miterlimit="3.8637"/>
</svg>
