<svg width="155" height="189" viewBox="0 0 155 189" fill="none" xmlns="http://www.w3.org/2000/svg">
<path d="M107.597 98.9042C113.095 98.9042 117.553 94.4467 117.553 88.9482C117.553 83.4496 113.095 78.9922 107.597 78.9922C102.098 78.9922 97.6406 83.4496 97.6406 88.9482C97.6406 94.4467 102.098 98.9042 107.597 98.9042Z" stroke="#ffffff" stroke-width="8" stroke-miterlimit="3.8637" stroke-linecap="round" stroke-linejoin="round"/>
<path d="M106.819 113.162C120.212 113.162 131.068 102.305 131.068 88.9131C131.068 75.5207 120.212 64.6641 106.819 64.6641C93.427 64.6641 82.5703 75.5207 82.5703 88.9131C82.5703 102.305 93.427 113.162 106.819 113.162Z" stroke="#ffffff" stroke-width="8" stroke-miterlimit="3.8637" stroke-linecap="round" stroke-linejoin="round"/>
<path d="M139.214 145.725C145.381 145.725 150.381 140.725 150.381 134.558C150.381 128.39 145.381 123.391 139.214 123.391C133.047 123.391 128.047 128.39 128.047 134.558C128.047 140.725 133.047 145.725 139.214 145.725Z" stroke="#ffffff" stroke-width="8" stroke-miterlimit="3.8637" stroke-linecap="round" stroke-linejoin="round"/>
<path d="M4 166.711H150.376V184.47H4V166.711Z" stroke="#ffffff" stroke-width="8" stroke-miterlimit="3.8637" stroke-linecap="round" stroke-linejoin="round"/>
<path d="M55.1 155.477H10.25V166.773H55.1V155.477Z" stroke="#ffffff" stroke-width="8" stroke-miterlimit="3.8637" stroke-linecap="round" stroke-linejoin="round"/>
<path d="M121.429 69.0916L127.991 59.5166L70.6932 20.1016L29.1562 81.7416L85.0272 121.474L93.1763 109.678" stroke="#ffffff" stroke-width="8" stroke-miterlimit="3.8637" stroke-linecap="round" stroke-linejoin="round"/>
<path d="M75.4474 114.912L65.0784 129.782L28.3594 104.384L38.7284 89.0391" stroke="#ffffff" stroke-width="8" stroke-miterlimit="3.8637" stroke-linecap="round" stroke-linejoin="round"/>
<path d="M38.8928 111.734L29.6328 124.323L45.4558 135.485L54.8728 122.579" stroke="#ffffff" stroke-width="8" stroke-miterlimit="3.8637" stroke-linecap="round" stroke-linejoin="round"/>
<path d="M84.6562 29.8891L99.5 9" stroke="#ffffff" stroke-width="8" stroke-miterlimit="3.8637" stroke-linecap="round" stroke-linejoin="round"/>
<path d="M112.906 49.0168L127.155 28.2578" stroke="#ffffff" stroke-width="8" stroke-miterlimit="3.8637" stroke-linecap="round" stroke-linejoin="round"/>
<path d="M92.2969 4L135.835 34.126" stroke="#ffffff" stroke-width="8" stroke-miterlimit="3.8637" stroke-linecap="round" stroke-linejoin="round"/>
<path d="M129.849 96.1875C129.849 96.1875 129.307 107.973 133.695 114.284C138.083 120.595 145.874 125.475 145.874 125.475" stroke="#ffffff" stroke-width="8" stroke-miterlimit="3.8637" stroke-linecap="round" stroke-linejoin="round"/>
<path d="M103.539 112.977C103.539 112.977 115.104 115.301 120.167 121.086C125.23 126.87 128.081 135.61 128.081 135.61" stroke="#ffffff" stroke-width="8" stroke-miterlimit="3.8637" stroke-linecap="round" stroke-linejoin="round"/>
<path d="M128.047 132.328V166.341" stroke="#ffffff" stroke-width="8" stroke-miterlimit="3.8637" stroke-linecap="round" stroke-linejoin="round"/>
<path d="M150.375 132.328V166.341" stroke="#ffffff" stroke-width="8" stroke-miterlimit="3.8637" stroke-linecap="round" stroke-linejoin="round"/>
</svg>
