<svg width="123" height="211" viewBox="0 0 123 211" fill="none" xmlns="http://www.w3.org/2000/svg">
<path fill-rule="evenodd" clip-rule="evenodd" d="M60.1641 127.761C60.1641 122.556 64.3833 118.336 69.5889 118.336H109.347C114.551 118.336 118.77 122.555 118.77 127.761V197.569C118.77 202.773 114.551 206.993 109.347 206.993H69.5889C64.3833 206.993 60.1641 202.773 60.1641 197.569V127.761Z" stroke="#FFFFFF" stroke-width="8" stroke-miterlimit="3.8637"/>
<path d="M89.4788 181.387C99.8224 181.387 108.208 173.002 108.208 162.659C108.208 152.315 99.8224 143.93 89.4788 143.93C79.1352 143.93 70.75 152.315 70.75 162.659C70.75 173.002 79.1352 181.387 89.4788 181.387Z" stroke="#FFFFFF" stroke-width="8" stroke-miterlimit="3.8637"/>
<path d="M82.1719 162.656H96.7836" stroke="#FFFFFF" stroke-width="8" stroke-miterlimit="3.8637" stroke-linecap="round"/>
<path d="M89.4766 169.963V155.352" stroke="#FFFFFF" stroke-width="8" stroke-miterlimit="3.8637" stroke-linecap="round"/>
<path fill-rule="evenodd" clip-rule="evenodd" d="M14.0921 4.16506C18.4531 4.16506 21.9893 7.70026 21.9893 12.0623V109.42C21.9893 113.781 18.4541 117.316 14.0921 117.316H11.8962C7.53517 117.316 4 113.781 4 109.42V12.0613C4 7.70026 7.53517 4.16406 11.8962 4.16406H14.0921V4.16506Z" stroke="#FFFFFF" stroke-width="8" stroke-miterlimit="3.8637"/>
<path d="M23.0781 105.003C23.0781 105.003 47.1087 105.661 58.2517 86.9506C67.5814 71.286 67.3138 52.4461 59.2203 38.1041C51.1268 23.7621 34.5354 14.3521 23.7682 15.6696" stroke="#FFFFFF" stroke-width="8" stroke-miterlimit="3.8637"/>
<path fill-rule="evenodd" clip-rule="evenodd" d="M81.5547 53.4228C81.5547 51.6879 82.9615 50.2812 84.6964 50.2812H94.9589C96.6938 50.2812 98.1006 51.6869 98.1006 53.4228V69.7C98.1006 71.4349 96.6938 72.8417 94.9589 72.8417H84.6964C82.9615 72.8417 81.5547 71.4349 81.5547 69.7V53.4228Z" stroke="#FFFFFF" stroke-width="8" stroke-miterlimit="3.8637"/>
<path d="M94.9531 73.0781V106.88" stroke="#FFFFFF" stroke-width="8" stroke-miterlimit="3.8637"/>
<path d="M84.6562 73.0781V106.88" stroke="#FFFFFF" stroke-width="8" stroke-miterlimit="3.8637"/>
<path d="M76.0703 118.358V110.196C76.0703 108.461 77.4771 107.055 79.212 107.055H100.24C101.975 107.055 103.381 108.461 103.381 110.196L103.451 118.358" stroke="#FFFFFF" stroke-width="8" stroke-miterlimit="3.8637"/>
<path d="M98.0372 55.5859H110.695C114.165 55.5859 116.978 58.3984 116.978 61.8692C116.978 65.4391 114.165 68.2516 110.695 68.2516H97.9688" stroke="#FFFFFF" stroke-width="8" stroke-miterlimit="3.8637"/>
<path d="M70.875 57.7901L81.7206 57.7891" stroke="#FFFFFF" stroke-width="8" stroke-miterlimit="3.8637"/>
<path d="M64.2022 52.75H67.6689C69.4038 52.75 70.8106 54.1557 70.8106 55.8906V68.9439C70.8106 70.6788 69.4038 72.0855 67.6689 72.0855H64.1328" stroke="#FFFFFF" stroke-width="8" stroke-miterlimit="3.8637"/>
<path d="M70.875 66.2823L81.7206 66.2812" stroke="#FFFFFF" stroke-width="8" stroke-miterlimit="3.8637"/>
</svg>
