<svg width="208" height="213" viewBox="0 0 208 213" fill="none" xmlns="http://www.w3.org/2000/svg">
<path fill-rule="evenodd" clip-rule="evenodd" d="M11.8921 203.208C3.52157 197.347 1.48655 185.811 7.34674 177.439L45.6249 122.103C51.4863 113.732 63.0233 111.697 71.3938 117.559L74.3842 119.653C82.7547 125.514 84.7897 137.05 78.9295 145.42L40.6514 200.757C34.79 209.127 23.2542 211.161 14.8825 205.301L11.8921 203.208Z" stroke="#FFFFFF" stroke-width="7" stroke-miterlimit="3.8637"/>
<path d="M27.6406 148.023C27.6406 148.023 28.4476 155.206 40.3381 163.337C52.2286 171.47 59.4108 171.47 61.1214 171.47" stroke="#FFFFFF" stroke-width="7" stroke-miterlimit="3.8637"/>
<path d="M167.988 170.545C167.988 170.545 169.438 140.809 138.551 140.809C107.664 140.809 110.906 171.995 112.143 175.324C113.379 178.652 121.784 192.773 130.488 195.46C130.488 195.46 117.859 197.295 117.262 203.267C116.665 209.24 130.189 208.643 130.189 208.643H166.195C166.195 208.643 185.991 204.462 194.992 189.444C203.993 174.427 203.993 156.124 203.694 146.526C203.395 136.927 196.504 114.87 180.933 99.555C175.407 93.2328 166.99 100.222 172.224 105.646C172.224 105.646 187.729 123.478 188.489 141.219C189.249 158.96 181.497 170.517 181.497 170.517C181.497 170.517 181.642 141.744 166.138 124.718C150.633 107.691 135.319 97.7033 125.476 79.7258C115.631 61.7496 111.303 55.4721 111.494 48.1004C111.683 40.7287 112.589 18.6125 97.2737 9.1491C81.9598 -0.315496 65.3141 4.77507 57.5624 12.3361C49.8096 19.8984 45.4356 27.5065 45.4356 27.5065L19.8971 37.3053C19.8971 37.3053 17.6606 47.7204 25.0323 57.5638C32.4039 67.4084 61.1307 66.6472 61.1307 66.6472V103.933" stroke="#FFFFFF" stroke-width="7" stroke-miterlimit="3.8637"/>
<path d="M80.8119 208.561C93.7212 208.561 104.186 198.096 104.186 185.187C104.186 172.278 93.7212 161.812 80.8119 161.812C67.9026 161.812 57.4375 172.278 57.4375 185.187C57.4375 198.096 67.9026 208.561 80.8119 208.561Z" stroke="#FFFFFF" stroke-width="7" stroke-miterlimit="3.8637"/>
</svg>
