<svg width="41" height="40" viewBox="0 0 41 40" fill="none" xmlns="http://www.w3.org/2000/svg">
<circle cx="20.9297" cy="20" r="20" fill="#7B7F94"/>
<path d="M20.9281 10.3984C15.6289 10.3984 11.3281 14.6992 11.3281 19.9984C11.3281 25.2976 15.6289 29.5984 20.9281 29.5984C26.2273 29.5984 30.5281 25.2976 30.5281 19.9984C30.5281 14.6992 26.2273 10.3984 20.9281 10.3984ZM25.3825 16.9264C25.2385 18.4432 24.6145 22.1296 24.2977 23.8288C24.1633 24.5488 23.8945 24.7888 23.6449 24.8176C23.0881 24.8656 22.6657 24.4528 22.1281 24.0976C21.2833 23.5408 20.8033 23.1952 19.9873 22.6576C19.0369 22.0336 19.6513 21.688 20.1985 21.1312C20.3425 20.9872 22.8001 18.7504 22.8481 18.5488C22.8548 18.5183 22.8539 18.4866 22.8455 18.4565C22.8372 18.4264 22.8216 18.3988 22.8001 18.376C22.7425 18.328 22.6657 18.3472 22.5985 18.3568C22.5121 18.376 21.1681 19.2688 18.5473 21.0352C18.1633 21.2944 17.8177 21.4288 17.5105 21.4192C17.1649 21.4096 16.5121 21.2272 16.0225 21.064C15.4177 20.872 14.9473 20.7664 14.9857 20.4304C15.0049 20.2576 15.2449 20.0848 15.6961 19.9024C18.4993 18.6832 20.3617 17.8768 21.2929 17.4928C23.9617 16.3792 24.5089 16.1872 24.8737 16.1872C24.9505 16.1872 25.1329 16.2064 25.2481 16.3024C25.3441 16.3792 25.3729 16.4848 25.3825 16.5616C25.3729 16.6192 25.3921 16.792 25.3825 16.9264Z" fill="white"/>
</svg>
