<svg width="23" height="14" viewBox="0 0 23 14" fill="none" xmlns="http://www.w3.org/2000/svg">
<path fill-rule="evenodd" clip-rule="evenodd" d="M22.0832 0.94163C22.2509 0.410457 22.0832 0.0241444 21.3408 0.0241444H18.8737C18.251 0.0241444 17.9635 0.362169 17.7959 0.724334C17.7959 0.724334 16.5264 3.81484 14.754 5.81883C14.1792 6.3983 13.9157 6.59146 13.6044 6.59146C13.4368 6.59146 13.2212 6.39831 13.2212 5.86712V0.917495C13.2212 0.289734 13.0296 0 12.5026 0H8.62251C8.23929 0 7.99978 0.289733 7.99978 0.57947C7.99978 1.18309 8.88597 1.32795 8.98178 3.01806V6.68804C8.98178 7.4848 8.83807 7.62968 8.5267 7.62968C7.6884 7.62968 5.65254 4.51502 4.43101 0.965779C4.1915 0.26559 3.95199 0 3.32925 0H0.8383C0.119757 0 0 0.338022 0 0.700186C0 1.35209 0.8383 4.63575 3.90408 8.98176C5.93996 11.9516 8.83807 13.5451 11.4488 13.5451C13.0296 13.5451 13.2212 13.1829 13.2212 12.5793V10.3339C13.2212 9.60953 13.3649 9.4888 13.8679 9.4888C14.2271 9.4888 14.8739 9.68196 16.3348 11.1065C18.0115 12.7967 18.2989 13.5692 19.233 13.5692H21.7C22.4185 13.5692 22.7538 13.2071 22.5622 12.5069C22.3466 11.8067 21.5324 10.7926 20.4785 9.58538C19.9037 8.90933 19.0414 8.16085 18.7779 7.79869C18.4186 7.3158 18.5145 7.12264 18.7779 6.68804C18.7539 6.68804 21.7718 2.39031 22.0832 0.94163Z" fill="#19181D"/>
</svg>
