<svg width="42" height="40" viewBox="0 0 42 40" fill="none" xmlns="http://www.w3.org/2000/svg">
<ellipse cx="20.5357" cy="20" rx="20.5357" ry="20" fill="#7B7F94"/>
<path fill-rule="evenodd" clip-rule="evenodd" d="M27.9991 15.9564C28.1369 15.5315 27.9991 15.2224 27.3893 15.2224H25.3627C24.8513 15.2224 24.6151 15.4929 24.4775 15.7826C24.4775 15.7826 23.4347 18.255 21.9788 19.8582C21.5066 20.3218 21.2902 20.4763 21.0344 20.4763C20.8968 20.4763 20.7197 20.3218 20.7197 19.8968V15.9371C20.7197 15.4349 20.5623 15.2031 20.1294 15.2031H16.9421C16.6274 15.2031 16.4306 15.4349 16.4306 15.6667C16.4306 16.1496 17.1586 16.2655 17.2373 17.6176V20.5536C17.2373 21.191 17.1192 21.3069 16.8635 21.3069C16.1748 21.3069 14.5025 18.8151 13.4991 15.9757C13.3024 15.4156 13.1057 15.2031 12.5941 15.2031H10.548C9.95775 15.2031 9.85938 15.4735 9.85938 15.7633C9.85938 16.2848 10.548 18.9117 13.0663 22.3885C14.7386 24.7644 17.1192 26.0392 19.2637 26.0392C20.5623 26.0392 20.7197 25.7494 20.7197 25.2666V23.4702C20.7197 22.8907 20.8377 22.7942 21.2508 22.7942C21.5459 22.7942 22.0772 22.9487 23.2773 24.0883C24.6546 25.4404 24.8906 26.0585 25.6579 26.0585H27.6843C28.2746 26.0585 28.55 25.7688 28.3926 25.2087C28.2155 24.6485 27.5467 23.8372 26.681 22.8714C26.2088 22.3306 25.5005 21.7318 25.2841 21.4421C24.9889 21.0558 25.0677 20.9012 25.2841 20.5536C25.2644 20.5536 27.7434 17.1154 27.9991 15.9564Z" fill="white"/>
</svg>
