<svg width="60" height="60" viewBox="0 0 60 60" fill="none" xmlns="http://www.w3.org/2000/svg">
<circle cx="30" cy="30" r="30" fill="#06BAB5"/>
<path d="M11.5841 29.835C11.583 33.0594 12.4293 36.2074 14.038 38.9818L11.4297 48.4621L21.1756 45.9182C23.8609 47.376 26.8839 48.1443 29.9607 48.1455H29.9685C40.1002 48.1455 48.3485 39.9367 48.3528 29.8492C48.3545 24.96 46.4436 20.3631 42.9729 16.9049C39.5017 13.4467 34.8863 11.5412 29.9685 11.5391C19.8348 11.5391 11.5883 19.7469 11.5841 29.835ZM17.3876 38.5038L17.0238 37.9286C15.494 35.5073 14.6866 32.7089 14.6877 29.8358C14.691 21.4512 21.5455 14.6293 29.9739 14.6293C34.0555 14.6309 37.8916 16.215 40.777 19.0891C43.6622 21.9634 45.2497 25.7844 45.2486 29.8477C45.2449 38.2328 38.3903 45.0552 29.9682 45.0552H29.9622C27.2199 45.0536 24.5304 44.3208 22.185 42.9352L21.6268 42.6058L15.8431 44.1153L17.3876 38.5038Z" fill="white"/>
<path d="M17.3876 38.5038L17.0238 37.9286C15.494 35.5073 14.6866 32.7089 14.6877 29.8358C14.691 21.4512 21.5455 14.6293 29.9739 14.6293C34.0555 14.6309 37.8916 16.215 40.777 19.0891C43.6622 21.9634 45.2497 25.7844 45.2486 29.8477C45.2449 38.2328 38.3903 45.0552 29.9682 45.0552H29.9622C27.2199 45.0536 24.5304 44.3208 22.185 42.9352L21.6268 42.6058L15.8431 44.1153L17.3876 38.5038Z" fill="white"/>
<path fill-rule="evenodd" clip-rule="evenodd" d="M25.3717 22.1837C25.0275 21.4221 24.6654 21.4068 24.3381 21.3934C24.0702 21.3821 23.7638 21.3828 23.4578 21.3828C23.1514 21.3828 22.6537 21.4973 22.2329 21.9549C21.8117 22.4126 20.625 23.5188 20.625 25.7687C20.625 28.0188 22.2713 30.193 22.5006 30.4984C22.7304 30.8032 25.6785 35.5681 30.3472 37.401C34.2277 38.9243 35.0173 38.6213 35.8595 38.545C36.7018 38.4689 38.5774 37.4391 38.96 36.3712C39.3429 35.3035 39.3429 34.3882 39.2281 34.1971C39.1133 34.0065 38.8069 33.8921 38.3476 33.6635C37.8881 33.4348 35.6298 32.3284 35.2088 32.1757C34.7876 32.0233 34.4814 31.9472 34.175 32.405C33.8687 32.8623 32.989 33.8921 32.7209 34.1971C32.453 34.5027 32.1849 34.5409 31.7256 34.3121C31.2661 34.0826 29.7866 33.6002 28.0315 32.0425C26.6659 30.8304 25.744 29.3335 25.4759 28.8756C25.208 28.4183 25.4473 28.1706 25.6777 27.9426C25.884 27.7377 26.1372 27.4087 26.3669 27.1418C26.5961 26.8747 26.6726 26.6841 26.8257 26.3791C26.979 26.0738 26.9023 25.8068 26.7876 25.578C26.6726 25.3493 25.7799 23.0878 25.3714 22.1835" fill="#06BAB5"/>
</svg>
