<svg width="41" height="40" viewBox="0 0 41 40" fill="none" xmlns="http://www.w3.org/2000/svg">
<circle cx="20.6406" cy="20" r="20" fill="#7B7F94"/>
<path d="M18.7191 22.5112L23.7015 19.5969L18.7191 16.6826V22.5112ZM29.8167 14.9049C29.9415 15.3614 30.0279 15.9734 30.0855 16.7506C30.1527 17.5277 30.1815 18.198 30.1815 18.7809L30.2391 19.5969C30.2391 21.7243 30.0855 23.2883 29.8167 24.2889C29.5767 25.1632 29.0199 25.7266 28.1559 25.9694C27.7047 26.0957 26.8791 26.1832 25.6119 26.2414C24.3639 26.3094 23.2215 26.3386 22.1655 26.3386L20.6391 26.3969C16.6167 26.3969 14.1111 26.2414 13.1223 25.9694C12.2583 25.7266 11.7015 25.1632 11.4615 24.2889C11.3367 23.8323 11.2503 23.2203 11.1927 22.4432C11.1255 21.666 11.0967 20.9957 11.0967 20.4129L11.0391 19.5969C11.0391 17.4694 11.1927 15.9054 11.4615 14.9049C11.7015 14.0306 12.2583 13.4672 13.1223 13.2243C13.5735 13.098 14.3991 13.0106 15.6663 12.9523C16.9143 12.8843 18.0567 12.8552 19.1127 12.8552L20.6391 12.7969C24.6615 12.7969 27.1671 12.9523 28.1559 13.2243C29.0199 13.4672 29.5767 14.0306 29.8167 14.9049Z" fill="white"/>
</svg>
