<svg width="41" height="40" fill="none" xmlns="http://www.w3.org/2000/svg"><circle cx="20.289" cy="20" r="20" fill="#7B7F94"/><path fill-rule="evenodd" clip-rule="evenodd" d="M19.821 12.756h-.486v-.002c-1.605.001-1.913.012-2.708.048-.84.039-1.296.179-1.6.297a2.668 2.668 0 00-.99.645 2.67 2.67 0 00-.645.99c-.118.304-.259.76-.297 1.6-.041.908-.05 1.18-.05 3.48 0 2.301.009 2.574.05 3.482.038.84.179 1.296.297 1.6.156.401.343.688.644.99.302.301.59.488.991.644.304.118.76.258 1.6.297.908.041 1.18.05 3.481.05 2.3 0 2.573-.009 3.482-.05.84-.039 1.296-.179 1.6-.297.402-.156.688-.343.99-.644.301-.302.488-.588.644-.99.118-.303.258-.76.297-1.6.041-.907.05-1.18.05-3.48 0-2.299-.009-2.572-.05-3.48-.038-.84-.179-1.296-.297-1.599a2.673 2.673 0 00-.645-.99 2.664 2.664 0 00-.99-.645c-.303-.118-.76-.258-1.6-.297-.908-.041-1.18-.05-3.48-.05h-.288zm4.886 1.43a1.034 1.034 0 100 2.068 1.034 1.034 0 000-2.068zm-9.023 5.633a4.425 4.425 0 118.85 0 4.425 4.425 0 01-8.85 0z" fill="#fff"/><path fill-rule="evenodd" clip-rule="evenodd" d="M16.556 11.255c.919-.042 1.213-.052 3.552-.052h-.002c2.34 0 2.633.01 3.552.052.917.042 1.543.187 2.093.4.567.22 1.046.515 1.525.994.48.479.774.96.995 1.526.211.548.357 1.174.4 2.091.041.92.052 1.213.052 3.553s-.01 2.632-.052 3.551c-.043.917-.189 1.543-.4 2.091a4.228 4.228 0 01-.995 1.526c-.478.48-.958.775-1.525.995-.548.213-1.175.358-2.092.4-.919.042-1.212.052-3.552.052s-2.633-.01-3.552-.052c-.917-.042-1.543-.187-2.091-.4a4.217 4.217 0 01-1.526-.995 4.22 4.22 0 01-.994-1.526c-.212-.548-.358-1.174-.4-2.091-.041-.919-.052-1.212-.052-3.552s.011-2.633.052-3.552c.041-.917.187-1.543.4-2.091a4.23 4.23 0 01.995-1.526c.479-.48.96-.773 1.526-.994.548-.213 1.174-.358 2.09-.4zm3.265 1.5h.287c2.3 0 2.573.009 3.482.05.84.039 1.296.179 1.6.297.401.156.688.343.99.644.301.302.488.589.644.991.118.303.259.76.297 1.6.041.907.05 1.18.05 3.48 0 2.299-.009 2.572-.05 3.48-.039.84-.179 1.296-.297 1.599a2.662 2.662 0 01-.645.99 2.664 2.664 0 01-.99.644c-.303.118-.76.258-1.6.297-.907.041-1.18.05-3.48.05-2.301 0-2.574-.009-3.482-.05-.84-.039-1.296-.18-1.6-.297a2.67 2.67 0 01-.99-.645 2.67 2.67 0 01-.645-.99c-.118-.303-.259-.759-.297-1.599-.041-.908-.05-1.181-.05-3.482 0-2.3.009-2.572.05-3.48.038-.84.179-1.296.297-1.6a2.67 2.67 0 01.644-.99c.302-.302.59-.488.991-.645.304-.118.76-.258 1.6-.297.795-.036 1.103-.047 2.709-.048v.002h.485z" fill="#fff"/></svg>