<svg width="22" height="22" fill="none" xmlns="http://www.w3.org/2000/svg"><path fill-rule="evenodd" clip-rule="evenodd" d="M10.411 1.94h-.607v-.002c-2.007.002-2.392.016-3.385.06-1.05.049-1.62.224-2 .372a3.342 3.342 0 00-1.239.806 3.35 3.35 0 00-.806 1.238c-.147.38-.322.95-.37 2-.052 1.135-.062 1.474-.062 4.35 0 2.876.01 3.217.062 4.352.047 1.05.223 1.62.37 2 .196.502.43.86.806 1.237.377.377.736.61 1.239.805.38.148.95.323 2 .372 1.135.051 1.476.063 4.351.063 2.876 0 3.217-.012 4.352-.063 1.05-.048 1.62-.223 2-.371a3.33 3.33 0 001.237-.806c.377-.377.61-.734.806-1.237.147-.379.323-.949.37-1.999.052-1.135.064-1.476.064-4.35 0-2.874-.012-3.215-.063-4.35-.048-1.05-.224-1.62-.371-2a3.34 3.34 0 00-.806-1.238 3.33 3.33 0 00-1.238-.806c-.38-.147-.949-.322-1.999-.37-1.136-.052-1.476-.062-4.352-.062h-.359zm6.109 1.79a1.292 1.292 0 100 2.584 1.292 1.292 0 000-2.584zM5.24 10.77a5.53 5.53 0 1111.062 0 5.53 5.53 0 01-11.061 0z" fill="#19181D"/><path fill-rule="evenodd" clip-rule="evenodd" d="M6.33.065C7.478.013 7.845 0 10.77 0h-.003c2.926 0 3.291.013 4.44.065 1.146.053 1.93.234 2.616.5a5.263 5.263 0 011.907 1.242c.6.599.967 1.2 1.243 1.908.265.685.447 1.467.5 2.614.052 1.148.066 1.515.066 4.44 0 2.925-.014 3.291-.066 4.44-.053 1.146-.235 1.929-.5 2.614a5.286 5.286 0 01-1.243 1.907c-.598.6-1.198.968-1.906 1.243-.686.266-1.469.448-2.615.5-1.15.053-1.515.066-4.44.066-2.925 0-3.291-.013-4.44-.066-1.146-.052-1.93-.234-2.614-.5a5.273 5.273 0 01-1.908-1.243 5.277 5.277 0 01-1.242-1.908c-.266-.684-.447-1.467-.5-2.613C.013 14.059 0 13.694 0 10.769c0-2.925.013-3.292.065-4.44.051-1.147.233-1.93.5-2.614a5.287 5.287 0 011.243-1.908A5.273 5.273 0 013.716.565C4.4.3 5.183.118 6.33.065zm4.081 1.876h.36c2.875 0 3.215.01 4.351.062 1.05.048 1.62.223 2 .37.502.196.86.429 1.237.806.377.377.61.736.806 1.238.147.38.323.95.37 2 .052 1.135.064 1.476.064 4.35 0 2.874-.012 3.215-.063 4.35-.048 1.05-.224 1.62-.371 2-.195.502-.429.86-.806 1.236a3.33 3.33 0 01-1.238.806c-.379.148-.949.323-1.999.37-1.135.052-1.476.064-4.352.064-2.875 0-3.216-.012-4.351-.063-1.05-.049-1.62-.224-2-.372a3.336 3.336 0 01-1.239-.805 3.338 3.338 0 01-.806-1.238c-.147-.379-.323-.949-.37-1.999-.052-1.135-.062-1.476-.062-4.352 0-2.876.01-3.215.062-4.35.048-1.05.223-1.62.37-2 .196-.502.43-.861.806-1.238.377-.377.736-.61 1.239-.806.38-.148.95-.323 2-.371.993-.045 1.378-.059 3.385-.061v.003h.607z" fill="#19181D"/></svg>