<svg width="162" height="99" fill="none" xmlns="http://www.w3.org/2000/svg"><path d="M4.784 60.6c1.049-.009 1.842.208 2.379.65.546.433.819 1.018.819 1.755 0 .555-.165 1.023-.494 1.404-.32.373-.763.59-1.326.65.927.078 1.677.338 2.249.78.572.442.858 1.083.858 1.924 0 1.1-.42 1.915-1.261 2.444-.832.529-1.907.793-3.224.793H.65V60.6h4.134zm0 3.861c.607 0 1.057-.113 1.352-.338.295-.225.442-.537.442-.936 0-.373-.147-.663-.442-.871-.295-.217-.745-.325-1.352-.325H2.041v2.47h2.743zm0 5.148c1.092 0 1.859-.173 2.301-.52.442-.355.663-.828.663-1.417 0-.555-.23-1.001-.689-1.339-.46-.338-1.218-.507-2.275-.507H2.041v3.783h2.743zm7.185-1.651c.087.572.325 1.031.715 1.378.399.338.893.507 1.482.507.45 0 .858-.091 1.222-.273.364-.19.667-.468.91-.832l.975.676a3.389 3.389 0 01-1.313 1.326 3.586 3.586 0 01-1.794.455 3.524 3.524 0 01-1.833-.494 3.637 3.637 0 01-1.3-1.339 3.846 3.846 0 01-.468-1.872c0-.667.156-1.283.468-1.846.32-.563.758-1.01 1.313-1.339a3.5 3.5 0 011.82-.494c.71 0 1.335.182 1.872.546.546.355.958.85 1.235 1.482.286.633.412 1.339.377 2.119h-5.681zm2.197-2.808c-.572 0-1.057.169-1.456.507-.39.338-.633.78-.728 1.326h4.329c-.087-.563-.33-1.01-.728-1.339-.39-.33-.862-.494-1.417-.494zm10.994-1.222v1.313h-2.768V71h-1.314v-5.759h-2.781v-1.313h6.863zm2.056 4.03c.087.572.325 1.031.715 1.378.399.338.893.507 1.482.507.45 0 .858-.091 1.222-.273.364-.19.667-.468.91-.832l.975.676a3.389 3.389 0 01-1.313 1.326 3.586 3.586 0 01-1.794.455 3.524 3.524 0 01-1.833-.494 3.637 3.637 0 01-1.3-1.339 3.846 3.846 0 01-.468-1.872c0-.667.156-1.283.468-1.846.32-.563.758-1.01 1.313-1.339a3.5 3.5 0 011.82-.494c.71 0 1.335.182 1.872.546.546.355.958.85 1.235 1.482.286.633.412 1.339.377 2.119h-5.68zm2.197-2.808c-.572 0-1.057.169-1.456.507-.39.338-.633.78-.728 1.326h4.33c-.088-.563-.33-1.01-.729-1.339-.39-.33-.862-.494-1.417-.494zm9.042-1.339c.59 0 1.127.169 1.612.507.485.33.867.784 1.144 1.365.277.58.416 1.226.416 1.937 0 .633-.139 1.226-.416 1.781a3.435 3.435 0 01-1.144 1.313 2.862 2.862 0 01-1.612.481c-.737 0-1.343-.2-1.82-.598-.468-.407-.78-1.01-.936-1.807h-.247l.13 4.81h-1.391v-9.672h1.391l-.13 2.223h.273c.165-.763.481-1.343.949-1.742.477-.399 1.07-.598 1.781-.598zm-.481 5.993c.433 0 .823-.095 1.17-.286.347-.19.62-.455.819-.793.2-.338.299-.724.299-1.157 0-.45-.1-.85-.299-1.196a2.068 2.068 0 00-.819-.819 2.305 2.305 0 00-1.17-.299c-.39 0-.754.1-1.092.299-.338.19-.607.455-.806.793a2.13 2.13 0 00-.299 1.105c0 .425.095.819.286 1.183.2.355.468.641.806.858.338.208.706.312 1.105.312zm11.828-5.876v7.085H48.49v-5.369l-4.095 5.369h-1.469l.013-.013v-7.072h1.3v5.356l4.082-5.356h1.482zm6.977 0h1.313V71H56.78v-2.886h-4.25V71h-1.3v-7.072h1.3v2.873h4.25v-2.873zm5.823-.104c1.1 0 1.933.277 2.496.832.564.546.845 1.322.845 2.327V71h-1.339l.221-2.275h-.195c-.182.823-.502 1.439-.962 1.846-.45.407-1.023.611-1.716.611-.866 0-1.512-.19-1.937-.572-.416-.381-.624-.893-.624-1.534 0-.789.303-1.378.91-1.768.615-.399 1.508-.598 2.678-.598h1.638c-.06-.494-.264-.867-.61-1.118-.348-.251-.816-.377-1.405-.377-.442 0-.806.095-1.092.286-.286.182-.559.468-.819.858l-1.118-.78c.39-.572.824-1.005 1.3-1.3.477-.303 1.053-.455 1.73-.455zm-.48 5.967c.701 0 1.252-.186 1.65-.559.399-.373.655-.88.767-1.521h-1.56c-.754 0-1.313.091-1.677.273-.355.182-.533.468-.533.858 0 .286.113.516.338.689.226.173.563.26 1.014.26zm9.379-5.98c.59 0 1.127.169 1.612.507.485.33.867.784 1.144 1.365.277.58.416 1.226.416 1.937 0 .633-.139 1.226-.416 1.781a3.435 3.435 0 01-1.144 1.313 2.862 2.862 0 01-1.612.481c-.737 0-1.343-.2-1.82-.598-.468-.407-.78-1.01-.936-1.807h-.247l.13 4.81h-1.391v-9.672h1.39l-.13 2.223h.274c.165-.763.48-1.343.949-1.742.477-.399 1.07-.598 1.78-.598zm-.481 5.993c.433 0 .823-.095 1.17-.286.347-.19.62-.455.819-.793.2-.338.299-.724.299-1.157 0-.45-.1-.85-.3-1.196a2.068 2.068 0 00-.818-.819 2.305 2.305 0 00-1.17-.299c-.39 0-.754.1-1.092.299-.338.19-.607.455-.806.793-.2.338-.3.706-.3 1.105 0 .425.096.819.287 1.183.2.355.468.641.806.858.338.208.706.312 1.105.312zm10.502-5.876h1.313V71h-1.313v-2.886h-4.25V71h-1.3v-7.072h1.3v2.873h4.25v-2.873zm5.823-.104c1.101 0 1.933.277 2.496.832.564.546.845 1.322.845 2.327V71h-1.339l.221-2.275h-.195c-.182.823-.502 1.439-.962 1.846-.45.407-1.022.611-1.716.611-.866 0-1.512-.19-1.937-.572-.416-.381-.624-.893-.624-1.534 0-.789.304-1.378.91-1.768.616-.399 1.508-.598 2.678-.598h1.638c-.06-.494-.264-.867-.61-1.118-.347-.251-.815-.377-1.405-.377-.442 0-.806.095-1.092.286-.286.182-.559.468-.819.858l-1.118-.78c.39-.572.824-1.005 1.3-1.3.477-.303 1.053-.455 1.73-.455zm-.48 5.967c.701 0 1.252-.186 1.65-.559.399-.373.655-.88.767-1.521h-1.56c-.754 0-1.313.091-1.677.273-.355.182-.533.468-.533.858 0 .286.113.516.338.689.226.173.564.26 1.014.26zm11.81-5.863V71h-1.339v-2.717h-1.755L93.45 71h-1.47l2.184-2.795c-1.456-.208-2.184-.901-2.184-2.08 0-1.465 1.114-2.197 3.341-2.197h3.354zm-1.339 1.3h-2.015c-.737 0-1.252.078-1.547.234-.286.147-.429.368-.429.663 0 .295.143.516.43.663.285.139.8.208 1.546.208h2.015v-1.768zm-89.822 13.7l-2.47 3.536L7.514 86H6.019l-2.002-2.873H1.95V86H.65v-7.072h1.3v2.873h2.067l2.002-2.873h1.495zM15.664 86h-1.313v-5.759h-2.99v2.392c0 .875-.074 1.551-.22 2.028-.148.477-.404.819-.768 1.027-.355.208-.875.312-1.56.312v-1.339c.381 0 .65-.035.806-.104.156-.078.264-.256.325-.533.07-.277.104-.741.104-1.391v-3.705h5.616V86zm8.303-7.072v7.085h-1.313v-5.369l-4.095 5.369H17.09l.013-.013v-7.072h1.3v5.356l4.082-5.356h1.482zm6.977 0h1.313V86h-1.313v-2.886h-4.25V86h-1.3v-7.072h1.3v2.873h4.25v-2.873zm9.616 0v7.085h-1.313v-5.369l-4.095 5.369h-1.469l.013-.013v-7.072h1.3v5.356l4.082-5.356h1.482zm8.29 0l-2.47 3.536L48.85 86h-1.495l-2.002-2.873h-2.067V86h-1.3v-7.072h1.3v2.873h2.067l2.002-2.873h1.495zm3.863-.104c1.1 0 1.932.277 2.496.832.563.546.845 1.322.845 2.327V86h-1.34l.222-2.275h-.195c-.182.823-.503 1.439-.962 1.846-.451.407-1.023.611-1.716.611-.867 0-1.513-.19-1.937-.572-.416-.381-.624-.893-.624-1.534 0-.789.303-1.378.91-1.768.615-.399 1.508-.598 2.678-.598h1.638c-.061-.494-.265-.867-.611-1.118-.347-.251-.815-.377-1.404-.377-.442 0-.806.095-1.092.286-.286.182-.56.468-.82.858l-1.117-.78c.39-.572.823-1.005 1.3-1.3.476-.303 1.053-.455 1.729-.455zm-.481 5.967c.702 0 1.252-.186 1.65-.559.4-.373.655-.88.768-1.521h-1.56c-.754 0-1.313.091-1.677.273-.356.182-.533.468-.533.858 0 .286.112.516.338.689.225.173.563.26 1.014.26z" fill="#E1E1E1"/><path d="M86.365 21.778H75.062v21.18h-5.67v-21.18H58.124v-4.731h28.24v4.731zM34.711 34.922l16.675-17.875h4.017v25.912h-5.67V25.233L32.946 42.96h-3.868V17.047h5.633v17.875zm-15.558 8.037L8.976 31.578H5.67v11.38H0V17.047h5.67v13.256l13.295-13.256h6.91L13.369 29.1l13.144 13.86h-7.36z" fill="#fff"/><path d="M119.132 58.951c15.562 0 28.178-12.616 28.178-28.179 0-15.562-12.616-28.178-28.178-28.178-15.563 0-28.179 12.616-28.179 28.178 0 15.563 12.616 28.179 28.179 28.179z" fill="#333"/><path d="M151.897 23.086c-.109-.893-2.853-2.846-7.055-3.11-4.209-.256-3.39-4.882-3.39-4.882s-.115-1.504.134-1.138c.249.361.908.964.908.964s4.407.116 6.23.328c1.824.211 3.774 2.673 3.774 2.673 1.068-4.414 4.4-4.934 6.499-5.327 2.098-.391 2.149-1.612 2.149-1.612s.384-.02.595 2.646c.204 2.667-2.169 5.197-5.348 5.725-3.179.527-2.693 3.636-2.693 3.636l.32 3.322c.844 7.055-.422 11.36-5.188 17.257-2.175 2.684-5.424 4.497-8.328 5.679.518 1.324 2.207 5.038 5.168 5.462-6.639 2.576-13.637-1.189-16.451-3.014-1.21.096-2.725.207-4.612.334-9.728.655-15.844-1.535-19.931-4.086-2.393-1.498-3.384-2.923-4.209-5.28-.198-.572 8.245 3.315 16.4-.496.705-.392.633-.558-.089-.417-4.433.855-10.899 1.098-16.982-2.988-1.267-.848-1.34-2.178-1.784-4.52-.48-3.398-1.649-11.156 7.027-19.724 1.758-1.523 4.847-2.612 6.725-3.261 1.253.302 4.076.123 11.995-.546 4.997 0 9.699 3.324 11.612 5.618 4.682 5.641 7.926 13.868 7.926 13.868s1.183 4.645 5.949 3.032c4.773-1.625 2.758-9.25 2.649-10.143z" fill="#fff"/><path d="M111.947 12.18L109.719.785s7.508-1.47 16.24-.387l-1.178 10.49c-.459.183-4.758 1.07-6.003 1.292 0 0-7.007.606-6.831 0z" fill="#fff"/><path d="M117.232 2.594h2.245v2.431h2.394v2.249h-2.394v2.418h-2.245V7.274h-2.427V5.025h2.427V2.594z" fill="#222"/><path fill-rule="evenodd" clip-rule="evenodd" d="M111.515 34.088a3.917 3.917 0 013.552-4.245 3.904 3.904 0 014.231 3.556 3.916 3.916 0 01-3.553 4.244 3.905 3.905 0 01-4.23-3.555z" fill="#222"/><path d="M113.147 34.147c-.076-.834.572-1.572 1.44-1.648.867-.076 1.628.536 1.703 1.376.076.834-.572 1.572-1.44 1.649-.867.069-1.628-.544-1.703-1.377z" fill="#fff"/></svg>