<svg width="162" height="59" fill="none" xmlns="http://www.w3.org/2000/svg"><path d="M86.365 21.825H75.062v21.18h-5.67v-21.18H58.124v-4.731h28.24v4.731zM34.711 34.969l16.675-17.875h4.017v25.911h-5.67V25.28L32.946 43.005h-3.868V17.094h5.633v17.875zm-15.558 8.036L8.976 31.627H5.67v11.378H0V17.094h5.67V30.35l13.295-13.256h6.91L13.369 29.148l13.144 13.857h-7.36z" fill="#5B5F74"/><path d="M119.132 58.998c15.562 0 28.178-12.616 28.178-28.179 0-15.562-12.616-28.178-28.178-28.178-15.563 0-28.179 12.616-28.179 28.178 0 15.563 12.616 28.179 28.179 28.179z" fill="#D9EDEC"/><path d="M151.897 23.133c-.109-.894-2.853-2.846-7.055-3.11-4.209-.256-3.39-4.882-3.39-4.882s-.115-1.504.134-1.138c.249.361.908.964.908.964s4.407.116 6.23.328c1.824.211 3.774 2.673 3.774 2.673 1.068-4.414 4.4-4.934 6.499-5.327 2.098-.392 2.149-1.612 2.149-1.612s.384-.02.595 2.646c.204 2.667-2.169 5.197-5.348 5.725-3.179.526-2.693 3.636-2.693 3.636l.32 3.322c.844 7.055-.422 11.359-5.188 17.257-2.175 2.684-5.424 4.497-8.328 5.679.518 1.324 2.207 5.038 5.168 5.462-6.639 2.576-13.637-1.189-16.451-3.014-1.21.096-2.725.207-4.612.334-9.728.655-15.844-1.535-19.931-4.086-2.393-1.498-3.384-2.923-4.209-5.28-.198-.573 8.245 3.314 16.4-.496.705-.392.633-.558-.089-.417-4.433.855-10.899 1.098-16.982-2.988-1.267-.848-1.34-2.178-1.784-4.52-.48-3.398-1.649-11.156 7.027-19.724 1.758-1.523 4.847-2.612 6.725-3.261 1.253.302 4.076.123 11.995-.546 4.997 0 9.699 3.324 11.612 5.618 4.682 5.64 7.926 13.868 7.926 13.868s1.183 4.645 5.949 3.032c4.773-1.625 2.758-9.25 2.649-10.143z" fill="#06BAB5"/><path d="M111.947 12.226L109.719.832s7.508-1.47 16.24-.387l-1.178 10.49c-.459.183-4.758 1.07-6.003 1.291 0 0-7.007.606-6.831 0z" fill="#06BAB5"/><path d="M117.232 2.64h2.245v2.432h2.394v2.249h-2.394v2.418h-2.245V7.32h-2.427V5.072h2.427V2.641z" fill="#fff"/><path fill-rule="evenodd" clip-rule="evenodd" d="M111.515 34.135a3.917 3.917 0 013.552-4.245 3.904 3.904 0 014.231 3.556 3.916 3.916 0 01-3.553 4.244 3.904 3.904 0 01-4.23-3.555z" fill="#fff"/><path d="M113.147 34.194c-.076-.834.572-1.572 1.44-1.649.867-.075 1.628.537 1.703 1.377.076.834-.572 1.572-1.44 1.648-.867.07-1.628-.543-1.703-1.376z" fill="#06BAB5"/></svg>