<svg width="121" height="67" fill="none" xmlns="http://www.w3.org/2000/svg"><path d="M1.09 55v-7H4.1c.76 0 1.357.153 1.79.46.433.307.65.753.65 1.34 0 .573-.207 1.013-.62 1.32-.413.3-.957.45-1.63.45l.18-.3c.78 0 1.377.157 1.79.47.42.307.63.757.63 1.35 0 .6-.22 1.07-.66 1.41-.433.333-1.08.5-1.94.5h-3.2zm.99-.79h2.19c.533 0 .933-.097 1.2-.29.273-.2.41-.503.41-.91 0-.407-.137-.703-.41-.89-.267-.187-.667-.28-1.2-.28H2.08v2.37zm0-3.13h1.95c.487 0 .857-.097 1.11-.29.26-.193.39-.477.39-.85 0-.38-.13-.667-.39-.86-.253-.193-.623-.29-1.11-.29H2.08v2.29zm8.68 3.98c-.566 0-1.066-.117-1.5-.35a2.566 2.566 0 01-1-.96 2.766 2.766 0 01-.35-1.4c0-.527.114-.993.34-1.4A2.5 2.5 0 019.2 50c.407-.233.864-.35 1.37-.35.514 0 .967.113 1.36.34.394.227.7.547.92.96.227.407.34.883.34 1.43 0 .04-.003.087-.01.14 0 .053-.003.103-.01.15H8.66v-.69h4.01l-.39.24a1.782 1.782 0 00-.21-.91 1.56 1.56 0 00-.61-.62 1.685 1.685 0 00-.89-.23c-.333 0-.63.077-.89.23a1.55 1.55 0 00-.61.63c-.146.267-.22.573-.22.92v.16c0 .353.08.67.24.95.167.273.397.487.69.64.294.153.63.23 1.01.23.314 0 .597-.053.85-.16.26-.107.487-.267.68-.48l.53.62c-.24.28-.54.493-.9.64a3.07 3.07 0 01-1.19.22zm4.745-.06v-4.71l.24.25h-2.18v-.84h4.84v.84h-2.17l.23-.25V55h-.96zm6.008.06c-.567 0-1.067-.117-1.5-.35a2.566 2.566 0 01-1-.96c-.234-.407-.35-.873-.35-1.4 0-.527.113-.993.34-1.4a2.5 2.5 0 01.95-.95c.406-.233.863-.35 1.37-.35.513 0 .966.113 1.36.34.393.227.7.547.92.96.226.407.34.883.34 1.43 0 .04-.004.087-.01.14 0 .053-.004.103-.01.15h-4.51v-.69h4.01l-.39.24a1.784 1.784 0 00-.21-.91 1.56 1.56 0 00-.61-.62 1.686 1.686 0 00-.89-.23c-.334 0-.63.077-.89.23-.26.147-.464.357-.61.63-.147.267-.22.573-.22.92v.16c0 .353.08.67.24.95.166.273.396.487.69.64.293.153.63.23 1.01.23.313 0 .596-.053.85-.16.26-.107.486-.267.68-.48l.53.62c-.24.28-.54.493-.9.64-.354.147-.75.22-1.19.22zm6.729 0c-.44 0-.843-.1-1.21-.3-.36-.207-.65-.51-.87-.91-.213-.4-.32-.9-.32-1.5s.103-1.1.31-1.5c.213-.4.5-.7.86-.9.367-.2.777-.3 1.23-.3.52 0 .98.113 1.38.34.4.227.717.543.95.95.233.4.35.87.35 1.41 0 .54-.117 1.013-.35 1.42a2.5 2.5 0 01-.95.95c-.4.227-.86.34-1.38.34zm-2.81 1.88V49.7h.92v1.43l-.06 1.23.1 1.23v3.35h-.96zm2.73-2.72c.34 0 .643-.077.91-.23.273-.153.487-.37.64-.65.16-.287.24-.617.24-.99 0-.38-.08-.707-.24-.98a1.624 1.624 0 00-.64-.65 1.793 1.793 0 00-.91-.23c-.333 0-.637.077-.91.23-.267.153-.48.37-.64.65-.153.273-.23.6-.23.98 0 .373.077.703.23.99.16.28.373.497.64.65.273.153.577.23.91.23zm4.155.78v-5.3h.96v3.86l3.25-3.86h.87V55h-.96v-3.86L33.197 55h-.88zm6.943 0v-5.3h.96v2.25h3.02V49.7h.96V55h-.96v-2.22h-3.02V55h-.96zm10.057 0v-1.12l-.05-.21v-1.91c0-.407-.12-.72-.36-.94-.234-.227-.587-.34-1.06-.34-.314 0-.62.053-.92.16a2.3 2.3 0 00-.76.41l-.4-.72c.273-.22.6-.387.98-.5.386-.12.79-.18 1.21-.18.726 0 1.286.177 1.68.53.393.353.59.893.59 1.62V55h-.91zm-1.74.06a2.54 2.54 0 01-1.04-.2 1.606 1.606 0 01-.68-.55c-.16-.24-.24-.51-.24-.81 0-.287.066-.547.2-.78.14-.233.363-.42.67-.56.313-.14.733-.21 1.26-.21h1.68v.69h-1.64c-.48 0-.804.08-.97.24a.775.775 0 00-.25.58c0 .26.103.47.31.63.206.153.493.23.86.23.36 0 .673-.08.94-.24.273-.16.47-.393.59-.7l.19.66c-.127.313-.35.563-.67.75-.32.18-.724.27-1.21.27zm7.188 0c-.44 0-.843-.1-1.21-.3-.36-.207-.65-.51-.87-.91-.213-.4-.32-.9-.32-1.5s.104-1.1.31-1.5c.214-.4.5-.7.86-.9.367-.2.777-.3 1.23-.3.52 0 .98.113 1.38.34.4.227.717.543.95.95.234.4.35.87.35 1.41 0 .54-.116 1.013-.35 1.42a2.5 2.5 0 01-.95.95c-.4.227-.86.34-1.38.34zm-2.81 1.88V49.7h.92v1.43l-.06 1.23.1 1.23v3.35h-.96zm2.73-2.72c.34 0 .644-.077.91-.23.274-.153.487-.37.64-.65.16-.287.24-.617.24-.99 0-.38-.08-.707-.24-.98a1.623 1.623 0 00-.64-.65 1.793 1.793 0 00-.91-.23c-.333 0-.636.077-.91.23-.266.153-.48.37-.64.65-.153.273-.23.6-.23.98 0 .373.077.703.23.99.16.28.374.497.64.65.274.153.577.23.91.23zm4.155.78v-5.3h.96v2.25h3.02V49.7h.96V55h-.96v-2.22H59.8V55h-.96zm10.057 0v-1.12l-.05-.21v-1.91c0-.407-.12-.72-.36-.94-.233-.227-.587-.34-1.06-.34-.314 0-.62.053-.92.16-.3.1-.553.237-.76.41l-.4-.72c.273-.22.6-.387.98-.5.386-.12.79-.18 1.21-.18.726 0 1.286.177 1.68.53.393.353.59.893.59 1.62V55h-.91zm-1.74.06a2.54 2.54 0 01-1.04-.2 1.606 1.606 0 01-.68-.55c-.16-.24-.24-.51-.24-.81 0-.287.066-.547.2-.78.14-.233.363-.42.67-.56.313-.14.733-.21 1.26-.21h1.68v.69h-1.64c-.48 0-.803.08-.97.24a.774.774 0 00-.25.58c0 .26.103.47.31.63.207.153.493.23.86.23.36 0 .673-.08.94-.24.273-.16.47-.393.59-.7l.19.66c-.127.313-.35.563-.67.75-.32.18-.724.27-1.21.27zm7.769-.06v-1.86l.15.18h-1.69c-.707 0-1.26-.15-1.66-.45-.394-.3-.59-.737-.59-1.31 0-.613.21-1.077.63-1.39.426-.313.993-.47 1.7-.47h2.32V55h-.86zm-3.84 0l1.44-2.03h.99l-1.4 2.03h-1.03zm3.84-2.16v-2.57l.15.27h-1.58c-.44 0-.78.083-1.02.25-.24.16-.36.427-.36.8 0 .693.446 1.04 1.34 1.04h1.62l-.15.21zM4.77 66l-2.05-2.58.79-.48L5.9 66H4.77zM.93 66v-5.3h.96V66H.93zm.67-2.24v-.82h1.75v.82H1.6zm1.99-.3l-.89-.12 2.03-2.64h1.03l-2.17 2.76zm2.437 2.53l.06-.81.13.02a.67.67 0 00.11.01.61.61 0 00.5-.22c.126-.147.22-.34.28-.58.06-.247.103-.523.13-.83.026-.307.046-.613.06-.92l.09-1.96h4.07V66h-.96v-4.74l.23.28h-2.72l.22-.29-.07 1.47c-.02.467-.057.903-.11 1.31a4.956 4.956 0 01-.25 1.07c-.107.307-.257.547-.45.72-.187.173-.43.26-.73.26-.087 0-.18-.01-.28-.03a3.545 3.545 0 01-.31-.06zm7.286.01v-5.3h.96v3.86l3.25-3.86h.87V66h-.96v-3.86L14.193 66h-.88zm6.943 0v-5.3h.96v2.25h3.02V60.7h.96V66h-.96v-2.22h-3.02V66h-.96zm6.807 0v-5.3h.96v3.86l3.25-3.86h.87V66h-.96v-3.86L27.943 66h-.88zm10.783 0l-2.05-2.58.79-.48 2.39 3.06h-1.13zm-3.84 0v-5.3h.96V66h-.96zm.67-2.24v-.82h1.75v.82h-1.75zm1.99-.3l-.89-.12 2.03-2.64h1.03l-2.17 2.76zm6.47 2.54v-1.12l-.05-.21v-1.91c0-.407-.12-.72-.36-.94-.234-.227-.588-.34-1.06-.34-.314 0-.62.053-.92.16a2.3 2.3 0 00-.76.41l-.4-.72c.272-.22.6-.387.98-.5.386-.12.79-.18 1.21-.18.726 0 1.286.177 1.68.53.392.353.59.893.59 1.62V66h-.91zm-1.74.06a2.54 2.54 0 01-1.04-.2 1.606 1.606 0 01-.68-.55c-.16-.24-.24-.51-.24-.81 0-.287.066-.547.2-.78.14-.233.362-.42.67-.56.312-.14.732-.21 1.26-.21h1.68v.69h-1.64c-.48 0-.804.08-.97.24a.774.774 0 00-.25.58c0 .26.102.47.31.63.206.153.492.23.86.23.36 0 .672-.08.94-.24.272-.16.47-.393.59-.7l.19.66c-.128.313-.35.563-.67.75-.32.18-.724.27-1.21.27z" fill="#7A7A7A"/><path d="M64.387 16.237h-8.428v15.791h-4.227V16.237h-8.4V12.71h21.055v3.527zm-38.507 9.8L38.31 12.71h2.996v19.318h-4.228V18.813L24.564 32.028H21.68V12.71h4.2v13.328zm-11.6 5.991l-7.588-8.483H4.228v8.483H0V12.71h4.228v9.884l9.911-9.883h5.152l-9.324 8.987 9.8 10.331H14.28z" fill="#fff"/><path d="M88.823 43.953c11.603 0 21.009-9.406 21.009-21.009 0-11.602-9.406-21.008-21.009-21.008-11.602 0-21.008 9.405-21.008 21.008s9.406 21.01 21.008 21.01z" fill="#191919"/><path d="M113.254 17.213c-.081-.666-2.127-2.121-5.26-2.318-3.137-.192-2.527-3.64-2.527-3.64s-.086-1.122.1-.849c.186.27.677.719.677.719s3.285.086 4.645.245c1.359.157 2.813 1.992 2.813 1.992.797-3.29 3.281-3.678 4.846-3.971 1.564-.292 1.602-1.202 1.602-1.202s.286-.014.444 1.973c.152 1.988-1.617 3.875-3.987 4.268-2.371.393-2.008 2.711-2.008 2.711l.238 2.476c.629 5.26-.315 8.47-3.868 12.867-1.621 2.001-4.044 3.352-6.209 4.234.386.987 1.645 3.756 3.853 4.072-4.95 1.92-10.167-.886-12.265-2.247-.902.072-2.032.154-3.439.25-7.253.488-11.812-1.145-14.86-3.047-1.783-1.117-2.522-2.18-3.137-3.937-.148-.427 6.146 2.471 12.227-.37.525-.292.472-.416-.067-.31-3.304.637-8.126.818-12.66-2.229-.946-.632-1-1.623-1.33-3.37-.358-2.533-1.23-8.317 5.238-14.705 1.311-1.135 3.614-1.947 5.014-2.431.934.225 3.04.091 8.943-.407 3.726 0 7.232 2.478 8.658 4.188 3.49 4.206 5.909 10.34 5.909 10.34s.882 3.463 4.435 2.26c3.559-1.21 2.056-6.896 1.975-7.562z" fill="#fff"/><path d="M83.468 9.08L81.807.586S87.404-.51 93.915.296l-.879 7.822c-.342.136-3.547.798-4.475.963 0 0-5.225.451-5.093 0z" fill="#fff"/><path d="M87.407 1.932h1.674v1.813h1.785v1.676h-1.785v1.803h-1.674V5.421h-1.81V3.745h1.81V1.932z" fill="#191919"/><path fill-rule="evenodd" clip-rule="evenodd" d="M83.146 25.417a2.92 2.92 0 012.648-3.165 2.911 2.911 0 013.155 2.651 2.92 2.92 0 01-2.65 3.164 2.91 2.91 0 01-3.153-2.65z" fill="#191919"/><path d="M84.36 25.46c-.056-.622.426-1.172 1.074-1.23.646-.056 1.213.401 1.27 1.027.056.622-.427 1.172-1.074 1.23-.647.05-1.214-.406-1.27-1.027z" fill="#06BAB5"/></svg>