<svg width="121" height="44" fill="none" xmlns="http://www.w3.org/2000/svg"><path d="M64.387 16.238h-8.428v15.79h-4.227v-15.79h-8.4V12.71h21.055v3.527zM25.88 26.037L38.31 12.71h2.996v19.319h-4.228V18.813L24.564 32.03H21.68V12.71h4.2v13.327zm-11.6 5.992l-7.588-8.484H4.228v8.484H0V12.71h4.228v9.883l9.911-9.883h5.152l-9.324 8.987 9.8 10.332H14.28z" fill="#5B5F74"/><path d="M88.823 43.953c11.603 0 21.009-9.406 21.009-21.009 0-11.602-9.406-21.008-21.009-21.008-11.602 0-21.008 9.405-21.008 21.008s9.406 21.01 21.008 21.01z" fill="#D9EDEC"/><path d="M113.254 17.214c-.081-.666-2.127-2.122-5.26-2.319-3.137-.191-2.527-3.64-2.527-3.64s-.086-1.121.1-.848c.186.269.677.719.677.719s3.285.086 4.645.244c1.359.157 2.813 1.993 2.813 1.993.797-3.291 3.281-3.679 4.846-3.971 1.564-.293 1.602-1.203 1.602-1.203s.286-.014.444 1.973c.152 1.988-1.617 3.875-3.987 4.269-2.371.392-2.008 2.71-2.008 2.71l.238 2.477c.629 5.26-.315 8.469-3.868 12.866-1.621 2.002-4.044 3.353-6.209 4.234.386.987 1.645 3.756 3.853 4.072-4.95 1.921-10.167-.886-12.265-2.246-.902.071-2.032.154-3.439.249-7.253.488-11.812-1.145-14.86-3.047-1.783-1.117-2.522-2.179-3.137-3.937-.148-.426 6.146 2.472 12.227-.369.525-.292.472-.416-.067-.311-3.304.637-8.126.818-12.66-2.228-.946-.632-1-1.624-1.33-3.37-.358-2.533-1.23-8.317 5.238-14.705 1.311-1.135 3.614-1.947 5.014-2.432.934.226 3.04.092 8.943-.407 3.726 0 7.232 2.479 8.658 4.189 3.49 4.206 5.909 10.34 5.909 10.34s.882 3.462 4.435 2.26c3.559-1.211 2.056-6.896 1.975-7.562z" fill="#06BAB5"/><path d="M83.468 9.08L81.807.586S87.404-.51 93.915.296l-.879 7.822c-.342.136-3.547.798-4.475.963 0 0-5.225.451-5.093 0z" fill="#06BAB5"/><path d="M87.407 1.932h1.674v1.813h1.785V5.42h-1.785v1.803h-1.674V5.42h-1.81V3.745h1.81V1.932z" fill="#fff"/><path fill-rule="evenodd" clip-rule="evenodd" d="M83.146 25.416a2.92 2.92 0 012.648-3.164 2.911 2.911 0 013.155 2.65 2.92 2.92 0 01-2.65 3.165 2.91 2.91 0 01-3.153-2.65z" fill="#fff"/><path d="M84.36 25.46c-.056-.622.426-1.172 1.074-1.229.646-.056 1.213.4 1.27 1.026.056.622-.427 1.173-1.074 1.23-.647.051-1.214-.405-1.27-1.027z" fill="#06BAB5"/></svg>