<svg width="205" height="217" fill="none" xmlns="http://www.w3.org/2000/svg"><path d="M135.918 143.409c7.641-10.858 8.389-20.12 6.033-31.938-3.16-15.857-13.827-28.352-34.34-29.683-24.351-1.58-33.973 24.351-33.973 24.351s-9.763-25.93-34.114-24.35c-20.513 1.33-31.18 13.826-34.34 29.682-3.333 16.723-.452 28.329 19.384 46.585 22.644 20.839 50.65 42.381 49.155 54.176-.91-7.18 8.942-17.971 21.994-30.017" stroke="#06BAB5" stroke-width="8" stroke-miterlimit="3.864" stroke-linecap="round" stroke-linejoin="round"/><path d="M103.319 163.591c7.636 0 13.827-6.19 13.827-13.827 0-7.636-6.191-13.826-13.827-13.826s-13.827 6.19-13.827 13.826c0 7.637 6.19 13.827 13.827 13.827zm-26.046-13.798c0-14.401 11.674-26.074 26.074-26.074m19.223 44.07s10.187 12.633 30.265 11.917c22.091-.786 32.083-22.544 32.083-35.694v-64.7m30.277-64.191l-4.139-2.016s-3-1.273-1.181-5.852c1.818-4.577 7.67-3.396 10.535-2.016 1.256.604 2.676 1.517 3.877 2.513 1.54 1.277 2.693 2.667 2.718 8.043v8.166s-.319 17.541-4.79 27.653c-4.505 10.186-11.903 27.97-37.113 27.97m-30.747-64.461l4.141-2.016s2.999-1.273 1.181-5.852c-1.818-4.577-7.67-3.396-10.536-2.016-1.255.604-2.675 1.517-3.876 2.513-1.54 1.277-2.693 2.667-2.718 8.043v8.166s.318 17.541 4.791 27.653c4.504 10.186 11.903 27.97 37.113 27.97" stroke="#06BAB5" stroke-width="8" stroke-miterlimit="3.864" stroke-linecap="round" stroke-linejoin="round"/></svg>