<svg width="123" height="211" fill="none" xmlns="http://www.w3.org/2000/svg"><path clip-rule="evenodd" d="M60.164 127.761a9.425 9.425 0 019.425-9.425h39.758c5.204 0 9.423 4.219 9.423 9.425v69.808c0 5.204-4.219 9.424-9.423 9.424H69.589a9.425 9.425 0 01-9.425-9.424v-69.808z" stroke="#06BAB5" stroke-width="8" stroke-miterlimit="3.864"/><path d="M89.479 181.387c10.343 0 18.729-8.385 18.729-18.728 0-10.344-8.386-18.729-18.73-18.729-10.343 0-18.728 8.385-18.728 18.729 0 10.343 8.385 18.728 18.729 18.728z" stroke="#06BAB5" stroke-width="8" stroke-miterlimit="3.864"/><path d="M82.172 162.656h14.612m-7.307 7.307v-14.611" stroke="#06BAB5" stroke-width="8" stroke-miterlimit="3.864" stroke-linecap="round"/><path clip-rule="evenodd" d="M14.092 4.165a7.897 7.897 0 017.897 7.897v97.358a7.896 7.896 0 01-7.897 7.896h-2.196A7.896 7.896 0 014 109.42V12.061a7.897 7.897 0 017.896-7.897h2.196v.001z" stroke="#06BAB5" stroke-width="8" stroke-miterlimit="3.864"/><path d="M23.078 105.003s24.03.658 35.174-18.052c9.33-15.665 9.062-34.505.968-48.847-8.093-14.342-24.685-23.752-35.452-22.434" stroke="#06BAB5" stroke-width="8" stroke-miterlimit="3.864"/><path clip-rule="evenodd" d="M81.555 53.423a3.142 3.142 0 013.141-3.142H94.96a3.141 3.141 0 013.142 3.142V69.7a3.142 3.142 0 01-3.142 3.142H84.696a3.142 3.142 0 01-3.141-3.142V53.423z" stroke="#06BAB5" stroke-width="8" stroke-miterlimit="3.864"/><path d="M94.953 73.078v33.802M84.656 73.078v33.802m-8.586 11.478v-8.162a3.141 3.141 0 013.142-3.141h21.028a3.14 3.14 0 013.141 3.141l.07 8.162m-5.414-62.772h12.658a6.283 6.283 0 016.283 6.283c0 3.57-2.813 6.383-6.283 6.383H97.969M70.875 57.79h10.846m-17.519-5.04h3.467a3.141 3.141 0 013.142 3.14v13.054a3.142 3.142 0 01-3.142 3.141h-3.536m6.742-5.803h10.846" stroke="#06BAB5" stroke-width="8" stroke-miterlimit="3.864"/></svg>