<svg width="219" height="212" fill="none" xmlns="http://www.w3.org/2000/svg"><path d="M168.344 94.835V0" stroke="#06BAB5" stroke-width="7" stroke-miterlimit="3.864"/><path clip-rule="evenodd" d="M141.671 19.39l13.241.003v13.661s0 12.668-10.897 12.668h-.664c-10.898 0-10.898-12.668-10.898-12.668V19.393h2.212l7.006-.002z" stroke="#06BAB5" stroke-width="7" stroke-miterlimit="3.864"/><path d="M144.047 57.243V46.125m0-26.375V6.914h23.566" stroke="#06BAB5" stroke-width="7" stroke-miterlimit="3.864"/><path d="M215.436 122.486H89.226L9.548 86.547c-5.762-3.886-7.283-11.708-3.396-17.47 2.736-4.056 7.092-6.113 11.637-5.558l81.503 33.799h116.143" stroke="#06BAB5" stroke-width="7" stroke-miterlimit="3.864" stroke-linecap="round"/><path d="M24.016 66.04s6.39-13.078 17.42-12.355c11.027.724 17.233 6.929 19.403 11.27 2.171 4.34 2.412 16.816 2.412 16.816M98.81 97.422l-4.443 24.989" stroke="#06BAB5" stroke-width="7" stroke-miterlimit="3.864"/><path clip-rule="evenodd" d="M4.392 130.316a7.645 7.645 0 017.644-7.644h180.078a7.645 7.645 0 017.645 7.644v2.625a7.644 7.644 0 01-7.645 7.644H12.036a7.644 7.644 0 01-7.645-7.644v-2.625z" stroke="#06BAB5" stroke-width="7" stroke-miterlimit="3.864"/><path d="M40.008 207.632a8.836 8.836 0 10-8.836-8.835 8.836 8.836 0 008.836 8.835zm134.491-.002a8.835 8.835 0 100-17.669 8.834 8.834 0 00-8.835 8.835 8.834 8.834 0 008.835 8.834zM40.375 189.64v-12.007m7.847-37.266l-11.519 37.729h8.103l29.87-37.485m99.433 49.053v-12.008m-7.365-35.562l11.003 36.032h-8.104l-28.596-35.148" stroke="#06BAB5" stroke-width="7" stroke-miterlimit="3.864"/><path d="M167.246 141.969l11.201 36.685-3.837-.001v11.014h-1.011v-11.014l-4.179.001-28.748-35.335.785-.638 28.445 34.961h7.179l-10.803-35.378.968-.295zM61.234 158.016h91.717" stroke="#06BAB5" stroke-width="7" stroke-miterlimit="3.864"/></svg>