<svg width="155" height="189" fill="none" xmlns="http://www.w3.org/2000/svg"><path d="M107.597 98.904c5.498 0 9.956-4.457 9.956-9.956 0-5.498-4.458-9.956-9.956-9.956-5.499 0-9.956 4.458-9.956 9.956 0 5.499 4.457 9.956 9.956 9.956z" stroke="#06BAB5" stroke-width="8" stroke-miterlimit="3.864" stroke-linecap="round" stroke-linejoin="round"/><path d="M106.819 113.162c13.393 0 24.249-10.857 24.249-24.249s-10.856-24.249-24.249-24.249c-13.392 0-24.249 10.857-24.249 24.25 0 13.391 10.857 24.248 24.249 24.248zm32.395 32.563c6.167 0 11.167-5 11.167-11.167 0-6.168-5-11.167-11.167-11.167s-11.167 4.999-11.167 11.167c0 6.167 5 11.167 11.167 11.167zM4 166.711h146.376v17.759H4v-17.759z" stroke="#06BAB5" stroke-width="8" stroke-miterlimit="3.864" stroke-linecap="round" stroke-linejoin="round"/><path d="M55.1 155.477H10.25v11.296H55.1v-11.296zm66.329-86.385l6.562-9.575-57.298-39.415-41.537 61.64 55.871 39.732 8.15-11.796m-17.73 5.234l-10.369 14.87-36.719-25.398 10.37-15.345" stroke="#06BAB5" stroke-width="8" stroke-miterlimit="3.864" stroke-linecap="round" stroke-linejoin="round"/><path d="M38.893 111.734l-9.26 12.589 15.823 11.162 9.417-12.906M84.656 29.89L99.5 9m13.406 40.017l14.249-20.76M92.297 4l43.538 30.126m-5.986 62.062s-.542 11.785 3.846 18.096 12.179 11.191 12.179 11.191m-42.335-12.498s11.565 2.324 16.628 8.109c5.063 5.784 7.914 14.524 7.914 14.524m-.034-3.282v34.013m22.328-34.013v34.013" stroke="#06BAB5" stroke-width="8" stroke-miterlimit="3.864" stroke-linecap="round" stroke-linejoin="round"/></svg>