<svg width="173" height="192" fill="none" xmlns="http://www.w3.org/2000/svg"><path d="M127.737 35.798c6.06 3.703 11.362 8.91 16.786 15.821 4.101 5.228 8.245 11.017 12.049 17.434l.301-.099c7.582-8.14 2.814-20.832 1.084-30.572-1.794-10.098-.923-19.648.828-29.669-14.364 3.003-23.526 15.244-31.048 27.085zm-42.115 42.13a19.63 19.63 0 0113.939 5.78 19.699 19.699 0 015.019 8.547c.376 1.436.104 2.564-.511 3.41-.034.462-.051.928-.051 1.398 0 10.444 8.466 18.91 18.91 18.91s18.91-8.466 18.91-18.91-8.466-18.91-18.91-18.91c-8.819 0-16.229 6.037-18.32 14.205a19.784 19.784 0 00-5.047-8.65c4.639-8.098 13.365-13.555 23.367-13.555 7.338 0 13.99 2.937 18.845 7.7l7.903-4.749c-3.581-6.036-7.508-11.527-11.447-16.548-12.708-16.198-23.68-21.65-51.423-19.633h-.58c-27.755-2.019-38.895 3.442-51.597 19.633-3.962 5.05-7.912 10.577-11.51 16.654l6.928 4.164a26.816 26.816 0 0118.343-7.22c9.982 0 18.694 5.435 23.339 13.506a19.637 19.637 0 0113.893-5.732zM66.663 92.255c-2.129-8.133-9.504-14.1-18.273-14.1-10.444 0-18.91 8.465-18.91 18.91 0 10.443 8.466 18.909 18.91 18.909s18.91-8.466 18.91-18.91c0-.433-.015-.863-.043-1.29-.69-.878-1-2.083-.594-3.519zm25.203 34.567c-3.024-.58-6.213-.438-6.213-.438s-3.182-.141-6.2.438c-1.148.22-3.182.634-3.898 1.741-.149 4.021 3.753 8.952 10.098 9.855 6.353-.911 10.232-5.993 10.083-10.007-.545-.841-3.101-1.442-3.87-1.589zm-18.741 51.929c1.509 2.544 5.294 5.081 11.288 5.081 6.74 0 10.688-3.208 11.746-6.027l-.296-.323c-2.425-2.676-6.719-9.499-10.396-9.635-2.245.084-7.767 6.135-12.342 10.904zm-8.748-2.38c1.331-1.111 2.75-2.571 4.08-4.047 4.88-5.415 9.607-11.936 16.336-12.448.147-.021.296-.033.447-.033l.225.002.224-.002c.149 0 .297.011.443.032 7.161.541 11.872 7.868 17.016 13.404.192.165.369.35.525.557 1.215 1.27 2.46 2.424 3.771 3.353 17.083 12.097 38.602-15.164 6.718-32.38-4.408-2.38-9.347-4.467-14.243-5.792a21.506 21.506 0 01-10.372 6.722v3.466c0 5.333-8 5.333-8 0v-3.52c-4.225-1.25-7.787-3.739-10.28-6.727-.808.227-2.145.624-3.824 1.205-10.374 3.587-25.31 11.148-26.88 23.295-2.017 15.6 13.691 20.165 22.526 13.908.436-.308.864-.641 1.288-.995zM12.186 76.503c-17.454-15.26-3.189-34.13-4.629-52.993C6.776 13.286 4.836 4.904 4.836 4.904 3.047-2.824 15.61.858 18.187 1.558 33.608 5.75 43.88 19.372 52.084 32.376c8.937-3.503 19.75-4.497 34.432-3.452 14.506-1.032 25.194-.074 34.023 3.327a166.757 166.757 0 014.226-6.135C134.771 12.243 145.244.526 163.657.002c2.916-.083 4.684 2.06 4.026 4.902 0 0-1.94 8.383-2.721 18.606-1.344 17.603 12.237 39.63-4.313 52.95 7.086 13.951 12.208 30.578 12.208 50.442 0 20.734-14.811 37.658-34.46 41.118-1.61 15.646-19.195 26.924-35.995 15.278-3.483 5.437-10.883 8.534-17.99 8.534-6.659 0-13.574-2.719-17.285-7.534-15.882 10.666-33.299-1.003-34.642-16.76a47.783 47.783 0 01-2.932-.875C11.764 160.747 0 146.827 0 126.902c.001-19.843 5.111-36.457 12.186-50.399zm3.635-7.527c.138.042.278.094.418.154 3.817-6.448 7.978-12.262 12.096-17.51 5.331-6.796 10.569-11.94 16.528-15.63a165.221 165.221 0 00-3.597-5.195C33.578 20.137 27.259 11.54 13.734 8.712c3.832 21.93 1.03 25.598-2.331 46.278-.818 5.033 1.022 10.254 4.418 13.986zm9.211 14.717l-5.765-3.464C12.671 93.26 8.001 108.62 8.001 126.902c0 22.647 17.786 30.325 25.223 32.544 2.649-9.84 11.964-20.052 31.605-26.844a82.505 82.505 0 012.799-.913c-1.388-7.008 3.347-13.763 18.025-13.305.832-.026 4.262-.083 7.719.58 8.757 1.679 11.485 7.177 10.264 12.828a82.97 82.97 0 012.463.809c19.849 6.864 29.189 17.336 31.7 27.342 5.684-1.379 27.058-8.216 27.058-33.042 0-18.335-4.696-33.729-11.321-46.784l-6.923 4.16a26.783 26.783 0 013.226 12.785c0 14.862-12.048 26.91-26.91 26.91s-26.91-12.048-26.91-26.91c0-1.41.108-2.796.318-4.148a11.707 11.707 0 00-10.714-6.987 11.706 11.706 0 00-10.659 6.864c.222 1.391.337 2.818.337 4.272 0 14.862-12.048 26.91-26.91 26.91s-26.91-12.048-26.91-26.91a26.771 26.771 0 013.551-13.37zm97.896 6.15a7.222 7.222 0 110 14.445 7.222 7.222 0 010-14.446zm-74.538 0a7.222 7.222 0 110 14.445 7.222 7.222 0 010-14.446z" fill="#06BAB5"/></svg>