<svg width="217" height="200" fill="none" xmlns="http://www.w3.org/2000/svg"><path d="M93.625 91.063s27.877-23.379 46.561-9.529c18.684 13.85 18.95 37.842 14.413 46.65-3.912 7.597-7.121 12.194-7.959 13.376 1.213 6.288 3.292 24.582-8.904 41.356-19.143 26.33-22.218 3.662-24.887-6.984-2.545-10.154-6.409-20.348-17.598-21.374-11.34.925-15.168 11.161-17.729 21.374-2.669 10.646-5.744 33.313-24.887 6.984-15.049-20.699-8.416-43.521-8.416-43.521s-15.985-27.76-5.605-45.078c10.379-17.32 28.232-17.32 40.51-13.584 12.277 3.737 21.751 19.272 21.751 19.272" stroke="#06BAB5" stroke-width="8" stroke-miterlimit="3.864" stroke-linecap="round"/><path clip-rule="evenodd" d="M138.956 116.071l-11.439 5.031-5.032 11.44-5.03-11.44-11.439-5.031 11.439-5.03 5.03-11.44 5.032 11.44 11.439 5.03z" stroke="#06BAB5" stroke-width="5.669" stroke-miterlimit="3.864" stroke-linecap="round"/><path clip-rule="evenodd" d="M37.21 63.184l-10.143 4.461-4.462 10.145-4.461-10.145L8 63.184l10.144-4.461 4.46-10.145 4.463 10.145 10.144 4.46z" stroke="#06BAB5" stroke-width="5.669" stroke-miterlimit="3.864"/><path d="M181.309 71.39L170.18 82.406" stroke="#06BAB5" stroke-width="5.669" stroke-miterlimit="3.864" stroke-linecap="round"/><path d="M133.812 32.836l6.822 6.766" stroke="#06BAB5" stroke-width="6.803" stroke-miterlimit="3.864" stroke-linecap="round"/><path clip-rule="evenodd" d="M141.012 40.216c-5.379 6.025 1.129 13.88 1.129 13.88l39.136 39.116c2.212 1.763 4.364 3.027 7.513.916l5.782-5.884c2.08-3.522.679-7.142-.722-8.931L156.984 42.51s-10.328-8.616-15.972-2.294z" stroke="#06BAB5" stroke-width="6.803" stroke-miterlimit="3.864" stroke-linecap="round"/><path d="M212.97 98.164c-6.13 1.478-13.428.392-20.923-7.172M105 19.297l5.502-1.807s5.552-1.772 8.51.779c1.713 1.477 4.445 4.19 6.442 6.212" stroke="#06BAB5" stroke-width="6.803" stroke-miterlimit="3.864" stroke-linecap="round"/><path d="M126.83 15.035c-6.722 8.302-9.332 17.332-5.829 20.168 3.503 2.837 11.792-1.594 18.514-9.897 6.723-8.302 9.333-17.332 5.83-20.168-3.503-2.836-11.792 1.595-18.515 9.897z" stroke="#06BAB5" stroke-width="6.803" stroke-miterlimit="3.864" stroke-linecap="round"/></svg>