<svg width="41" height="40" fill="none" xmlns="http://www.w3.org/2000/svg"><circle cx="20.93" cy="20" r="20" fill="#7B7F94"/><path d="M20.928 10.398c-5.3 0-9.6 4.301-9.6 9.6 0 5.3 4.3 9.6 9.6 9.6s9.6-4.3 9.6-9.6c0-5.299-4.3-9.6-9.6-9.6zm4.454 6.528c-.144 1.517-.768 5.204-1.084 6.903-.135.72-.403.96-.653.989-.557.048-.98-.365-1.517-.72-.845-.557-1.325-.903-2.14-1.44-.951-.624-.337-.97.21-1.527.145-.144 2.602-2.38 2.65-2.582a.191.191 0 00-.048-.173c-.058-.048-.134-.029-.201-.02-.087.02-1.43.913-4.052 2.68-.384.258-.73.393-1.037.383-.345-.01-.998-.192-1.488-.355-.604-.192-1.075-.298-1.036-.634.019-.172.259-.345.71-.528 2.803-1.219 4.666-2.025 5.597-2.41 2.669-1.113 3.216-1.305 3.58-1.305.078 0 .26.02.375.115a.381.381 0 01.134.26c-.01.057.01.23 0 .364z" fill="#fff"/></svg>