<svg width="23" height="14" fill="none" xmlns="http://www.w3.org/2000/svg"><path fill-rule="evenodd" clip-rule="evenodd" d="M22.083.942c.168-.532 0-.918-.742-.918h-2.467c-.623 0-.91.338-1.078.7 0 0-1.27 3.09-3.042 5.095-.575.58-.838.772-1.15.772-.167 0-.383-.193-.383-.724V.917c0-.627-.191-.917-.718-.917h-3.88C8.239 0 8 .29 8 .58c0 .603.886.748.982 2.438v3.67c0 .797-.144.942-.455.942-.839 0-2.874-3.115-4.096-6.664C4.191.266 3.952 0 3.329 0H.84C.118 0 0 .338 0 .7c0 .652.838 3.936 3.904 8.282 2.036 2.97 4.934 4.563 7.545 4.563 1.58 0 1.772-.362 1.772-.966v-2.245c0-.724.144-.845.647-.845.36 0 1.006.193 2.467 1.617 1.677 1.69 1.964 2.463 2.898 2.463H21.7c.719 0 1.054-.362.862-1.062-.215-.7-1.03-1.714-2.084-2.922-.574-.676-1.437-1.424-1.7-1.786-.36-.483-.263-.676 0-1.111-.024 0 2.994-4.298 3.305-5.746z" fill="#06BAB5"/></svg>