<svg width="42" height="40" fill="none" xmlns="http://www.w3.org/2000/svg"><ellipse cx="20.536" cy="20" rx="20.536" ry="20" fill="#7B7F94"/><path fill-rule="evenodd" clip-rule="evenodd" d="M28 15.956c.137-.425 0-.734-.61-.734h-2.027c-.512 0-.748.27-.886.56 0 0-1.042 2.473-2.498 4.076-.472.464-.689.618-.945.618-.137 0-.314-.154-.314-.58v-3.959c0-.502-.158-.734-.59-.734h-3.188c-.315 0-.511.232-.511.464 0 .483.728.598.806 1.95v2.937c0 .637-.118.753-.373.753-.69 0-2.362-2.492-3.365-5.331-.197-.56-.393-.773-.905-.773h-2.046c-.59 0-.689.27-.689.56 0 .522.689 3.149 3.207 6.626 1.673 2.375 4.053 3.65 6.198 3.65 1.298 0 1.456-.29 1.456-.772V23.47c0-.58.118-.676.53-.676.296 0 .827.155 2.027 1.294 1.378 1.352 1.614 1.97 2.38 1.97h2.027c.59 0 .866-.29.709-.85-.178-.56-.846-1.37-1.712-2.337-.472-.54-1.18-1.14-1.397-1.429-.295-.386-.216-.54 0-.888-.02 0 2.46-3.439 2.715-4.598z" fill="#fff"/></svg>