<svg width="60" height="60" fill="none" xmlns="http://www.w3.org/2000/svg"><circle cx="30" cy="30" r="30" fill="#06BAB5"/><path d="M11.584 29.835a18.2 18.2 0 002.454 9.147l-2.608 9.48 9.746-2.544a18.437 18.437 0 008.785 2.227h.008c10.131 0 18.38-8.208 18.384-18.296.002-4.889-1.91-9.486-5.38-12.944-3.471-3.458-8.087-5.364-13.005-5.366-10.133 0-18.38 8.208-18.384 18.296zm5.804 8.669l-.364-.575a15.116 15.116 0 01-2.336-8.093c.003-8.385 6.857-15.207 15.286-15.207a15.216 15.216 0 0110.803 4.46 15.08 15.08 0 014.472 10.759c-.004 8.385-6.859 15.207-15.28 15.207h-.007a15.315 15.315 0 01-7.777-2.12l-.558-.33-5.784 1.51 1.545-5.611z" fill="#fff"/><path d="M17.388 38.504l-.364-.575a15.116 15.116 0 01-2.336-8.093c.003-8.385 6.857-15.207 15.286-15.207a15.216 15.216 0 0110.803 4.46 15.08 15.08 0 014.472 10.759c-.004 8.385-6.859 15.207-15.28 15.207h-.007a15.315 15.315 0 01-7.777-2.12l-.558-.33-5.784 1.51 1.545-5.611z" fill="#fff"/><path fill-rule="evenodd" clip-rule="evenodd" d="M25.372 22.184c-.345-.762-.707-.777-1.034-.79-.268-.012-.574-.011-.88-.011-.307 0-.804.114-1.225.572-.421.458-1.608 1.564-1.608 3.814s1.646 4.424 1.876 4.73c.23.304 3.177 5.07 7.846 6.902 3.88 1.523 4.67 1.22 5.512 1.144.843-.076 2.718-1.106 3.101-2.174.383-1.068.383-1.983.268-2.174-.115-.19-.421-.305-.88-.534-.46-.228-2.718-1.335-3.14-1.487-.42-.153-.727-.229-1.033.229-.306.457-1.186 1.487-1.454 1.792-.268.306-.536.344-.995.115-.46-.23-1.94-.712-3.694-2.27-1.366-1.212-2.288-2.709-2.556-3.166-.268-.458-.029-.705.202-.933.206-.205.46-.534.689-.801.23-.267.306-.458.459-.763.153-.305.076-.572-.038-.801-.115-.229-1.008-2.49-1.417-3.395" fill="#06BAB5"/></svg>