<svg width="24" height="17" fill="none" xmlns="http://www.w3.org/2000/svg"><path d="M9.6 12.143L15.828 8.5 9.6 4.857v7.286zm13.872-9.508c.156.57.264 1.336.336 2.307.084.972.12 1.81.12 2.538L24 8.5c0 2.66-.192 4.614-.528 5.865-.3 1.093-.996 1.797-2.076 2.1-.564.159-1.596.268-3.18.34a79.04 79.04 0 01-4.308.122L12 17c-5.028 0-8.16-.194-9.396-.534-1.08-.304-1.776-1.008-2.076-2.101-.156-.57-.264-1.336-.336-2.307-.084-.972-.12-1.81-.12-2.538L0 8.5c0-2.66.192-4.614.528-5.865.3-1.093.996-1.797 2.076-2.1C3.168.375 4.2.266 5.784.194a79.041 79.041 0 014.308-.122L12 0c5.028 0 8.16.194 9.396.534 1.08.304 1.776 1.008 2.076 2.101z" fill="#000"/></svg>