<svg width="41" height="40" fill="none" xmlns="http://www.w3.org/2000/svg"><circle cx="20.641" cy="20" r="20" fill="#7B7F94"/><path d="M18.72 22.511l4.982-2.914-4.983-2.914v5.828zm11.097-7.606c.125.456.21 1.068.268 1.846.068.777.096 1.447.096 2.03l.058.816c0 2.127-.154 3.691-.422 4.692-.24.874-.797 1.438-1.661 1.68-.451.127-1.277.214-2.544.272-1.248.068-2.39.098-3.446.098l-1.527.058c-4.022 0-6.528-.156-7.517-.428-.864-.242-1.42-.806-1.66-1.68-.125-.457-.212-1.069-.27-1.846a23.651 23.651 0 01-.095-2.03l-.058-.816c0-2.128.154-3.692.422-4.692.24-.874.797-1.438 1.661-1.68.451-.127 1.277-.214 2.544-.273a63.23 63.23 0 013.447-.097l1.526-.058c4.023 0 6.528.155 7.517.427.864.243 1.42.807 1.66 1.68z" fill="#fff"/></svg>